SplineFontDB: 3.2
FontName: ElsaTerm
FullName: ElsaTerm
FamilyName: ElsaTerm
Weight: 

Copyright: Copyright 2020 The JetBrains Mono NL Project Authors (https://github.com/JetBrains/JetBrainsMonoNL) OFL. Reserved name probably "JetBrains"
Version: 2.220; ttfautohint (v1.8.3)
ItalicAngle: 0
UnderlinePosition: -180
UnderlineWidth: 50
Ascent: 800
Descent: 200
InvalidEm: 0
sfntRevision: 0x00023852
LayerCount: 2
Layer: 0 1 "Back" 1
Layer: 1 1 "Fore" 0
XUID: [1021 741 -376169843 6813]
StyleMap: 0x0040
FSType: 0
OS2Version: 4
OS2_WeightWidthSlopeOnly: 0
OS2_UseTypoMetrics: 1
CreationTime: 1608560709
ModificationTime: 1608835922
PfmFamily: 17
TTFWeight: 500
TTFWidth: 5
LineGap: 0
VLineGap: 0
Panose: 2 0 0 9 0 0 0 0 0 0
OS2TypoAscent: 1020
OS2TypoAOffset: 0
OS2TypoDescent: -300
OS2TypoDOffset: 0
OS2TypoLinegap: 0
OS2WinAscent: 1020
OS2WinAOffset: 0
OS2WinDescent: 300
OS2WinDOffset: 0
HheadAscent: 1020
HheadAOffset: 0
HheadDescent: -300
HheadDOffset: 0
OS2SubXSize: 650
OS2SubYSize: 600
OS2SubXOff: 0
OS2SubYOff: 75
OS2SupXSize: 650
OS2SupYSize: 600
OS2SupXOff: 0
OS2SupYOff: 350
OS2StrikeYSize: 50
OS2StrikeYPos: 320
OS2CapHeight: 730
OS2XHeight: 550
OS2Vendor: 'JB  '
OS2CodePages: 2000019f.dfd70000
OS2UnicodeRanges: a00002ff.1000f8eb.00000008.00000000
MarkAttachClasses: 1
DEI: 91125
TtTable: prep
SVTCA[y-axis]
MPPEM
PUSHW_1
 200
GT
IF
PUSHB_2
 1
 1
INSTCTRL
EIF
PUSHB_1
 1
PUSHW_2
 2048
 2048
MUL
WCVTF
PUSHB_2
 0
 7
WS
PUSHB_7
 0
 0
 65
 49
 33
 5
 0
LOOPCALL
PUSHB_2
 0
 7
WS
NPUSHB
 12
 78
 4
 70
 4
 54
 8
 38
 8
 24
 7
 5
 10
LOOPCALL
PUSHB_2
 0
 7
WS
NPUSHB
 12
 82
 2
 74
 2
 62
 6
 46
 6
 31
 5
 5
 10
LOOPCALL
PUSHB_2
 0
 12
WS
PUSHW_7
 5056
 4544
 3520
 2496
 1600
 5
 11
LOOPCALL
PUSHB_2
 0
 17
WS
PUSHW_7
 64
 64
 64
 64
 64
 5
 11
LOOPCALL
PUSHW_2
 3
 0
WCVTP
PUSHB_2
 36
 1
GETINFO
LTEQ
IF
PUSHB_1
 64
GETINFO
IF
PUSHW_2
 3
 100
WCVTP
PUSHB_2
 40
 1
GETINFO
LTEQ
IF
PUSHW_1
 2048
GETINFO
IF
PUSHW_2
 3
 0
WCVTP
EIF
ELSE
PUSHB_2
 39
 1
GETINFO
LTEQ
IF
PUSHW_3
 2176
 1
 1088

StartChar: .notdef
Encoding: 65536 -1 0
Width: 600
Flags: W
LayerCount: 2
Fore
SplineSet
90 0 m 1,0,-1
 90 730 l 1,1,-1
 510 730 l 1,2,-1
 510 0 l 1,3,-1
 90 0 l 1,0,-1
140 109 m 1,4,-1
 440 680 l 1,5,-1
 140 680 l 1,6,-1
 140 109 l 1,4,-1
160 50 m 1,7,-1
 460 50 l 1,8,-1
 460 621 l 1,9,-1
 160 50 l 1,7,-1
EndSplineSet
EndChar

StartChar: exclam
Encoding: 33 33 3
Width: 600
Flags: W
LayerCount: 2
Fore
SplineSet
261 224 m 1,0,-1
 239 601 l 1,1,-1
 239 730 l 1,2,-1
 361 730 l 1,3,-1
 361 601 l 1,4,-1
 339 224 l 1,5,-1
 261 224 l 1,0,-1
285 -5 m 2,6,7
 257 -5 257 -5 239 12.5 c 128,-1,8
 221 30 221 30 221 58 c 256,9,10
 221 86 221 86 239 103.5 c 128,-1,11
 257 121 257 121 285 121 c 2,12,-1
 315 121 l 2,13,14
 345 121 345 121 362.5 103.5 c 128,-1,15
 380 86 380 86 380 59 c 0,16,17
 380 31 380 31 361.5 13 c 128,-1,18
 343 -5 343 -5 315 -5 c 2,19,-1
 285 -5 l 2,6,7
EndSplineSet
EndChar

StartChar: quotedbl
Encoding: 34 34 4
Width: 600
Flags: W
LayerCount: 2
Fore
SplineSet
362 430 m 1,0,-1
 350 619 l 1,1,-1
 350 730 l 1,2,-1
 462 730 l 1,3,-1
 462 619 l 1,4,-1
 450 430 l 1,5,-1
 362 430 l 1,0,-1
151 430 m 1,6,-1
 138 619 l 1,7,-1
 138 730 l 1,8,-1
 250 730 l 1,9,-1
 250 619 l 1,10,-1
 239 430 l 1,11,-1
 151 430 l 1,6,-1
EndSplineSet
EndChar

StartChar: numbersign
Encoding: 35 35 5
Width: 600
Flags: W
LayerCount: 2
Fore
SplineSet
79 0 m 1,0,-1
 114 191 l 1,1,-1
 31 191 l 1,2,-1
 31 267 l 1,3,-1
 127 267 l 1,4,-1
 162 464 l 1,5,-1
 64 464 l 1,6,-1
 64 539 l 1,7,-1
 176 539 l 1,8,-1
 210 730 l 1,9,-1
 291 730 l 1,10,-1
 256 539 l 1,11,-1
 406 539 l 1,12,-1
 440 730 l 1,13,-1
 521 730 l 1,14,-1
 486 539 l 1,15,-1
 570 539 l 1,16,-1
 570 464 l 1,17,-1
 473 464 l 1,18,-1
 438 267 l 1,19,-1
 536 267 l 1,20,-1
 536 191 l 1,21,-1
 424 191 l 1,22,-1
 390 0 l 1,23,-1
 309 0 l 1,24,-1
 344 191 l 1,25,-1
 194 191 l 1,26,-1
 160 0 l 1,27,-1
 79 0 l 1,0,-1
208 267 m 1,28,-1
 357 267 l 1,29,-1
 392 464 l 1,30,-1
 243 464 l 1,31,-1
 208 267 l 1,28,-1
EndSplineSet
EndChar

StartChar: dollar
Encoding: 36 36 6
Width: 600
Flags: W
LayerCount: 2
Fore
SplineSet
272 -140 m 1,0,-1
 272 -9 l 1,1,2
 176 -1 176 -1 121 52.5 c 128,-1,3
 66 106 66 106 65 193 c 1,4,-1
 173 193 l 1,5,6
 173 150 173 150 198.5 122.5 c 128,-1,7
 224 95 224 95 272 88 c 1,8,-1
 272 324 l 1,9,-1
 250 330 l 2,10,11
 169 353 169 353 125.5 408.5 c 128,-1,12
 82 464 82 464 82 541 c 0,13,14
 82 624 82 624 133 677 c 128,-1,15
 184 730 184 730 272 738 c 1,16,-1
 272 870 l 1,17,-1
 333 870 l 1,18,-1
 333 739 l 1,19,20
 421 731 421 731 473 678 c 128,-1,21
 525 625 525 625 526 542 c 1,22,-1
 418 542 l 1,23,24
 418 583 418 583 396 609 c 128,-1,25
 374 635 374 635 333 643 c 1,26,-1
 333 418 l 1,27,-1
 369 408 l 2,28,29
 449 384 449 384 492.5 328.5 c 128,-1,30
 536 273 536 273 536 195 c 0,31,32
 536 110 536 110 480.5 55 c 128,-1,33
 425 0 425 0 333 -9 c 1,34,-1
 333 -140 l 1,35,-1
 272 -140 l 1,0,-1
190 548 m 0,36,37
 190 508 190 508 211 479 c 128,-1,38
 232 450 232 450 272 437 c 1,39,-1
 272 643 l 1,40,41
 232 636 232 636 211 611.5 c 128,-1,42
 190 587 190 587 190 548 c 0,36,37
333 87 m 1,43,44
 378 94 378 94 403 121 c 128,-1,45
 428 148 428 148 428 191 c 0,46,47
 428 232 428 232 403 262.5 c 128,-1,48
 378 293 378 293 333 303 c 1,49,-1
 333 87 l 1,43,44
EndSplineSet
EndChar

StartChar: percent
Encoding: 37 37 7
Width: 600
Flags: W
LayerCount: 2
Fore
SplineSet
157 400 m 256,0,1
 94 400 94 400 54 436 c 128,-1,2
 14 472 14 472 14 535 c 2,3,-1
 14 600 l 2,4,5
 14 663 14 663 54 699 c 128,-1,6
 94 735 94 735 157 735 c 256,7,8
 220 735 220 735 259.5 699 c 128,-1,9
 299 663 299 663 299 600 c 2,10,-1
 299 535 l 2,11,12
 299 472 299 472 259.5 436 c 128,-1,13
 220 400 220 400 157 400 c 256,0,1
5 0 m 1,14,-1
 512 730 l 1,15,-1
 595 730 l 1,16,-1
 88 0 l 1,17,-1
 5 0 l 1,14,-1
157 473 m 0,18,19
 217 473 217 473 217 535 c 2,20,-1
 217 600 l 2,21,22
 217 663 217 663 157 663 c 0,23,24
 96 663 96 663 96 600 c 2,25,-1
 96 535 l 2,26,27
 96 473 96 473 157 473 c 0,18,19
444 -5 m 0,28,29
 380 -5 380 -5 340.5 31.5 c 128,-1,30
 301 68 301 68 301 130 c 2,31,-1
 301 195 l 2,32,33
 301 257 301 257 340.5 293.5 c 128,-1,34
 380 330 380 330 444 330 c 0,35,36
 507 330 507 330 546.5 293.5 c 128,-1,37
 586 257 586 257 586 195 c 2,38,-1
 586 130 l 2,39,40
 586 68 586 68 546.5 31.5 c 128,-1,41
 507 -5 507 -5 444 -5 c 0,28,29
444 69 m 0,42,43
 504 69 504 69 504 130 c 2,44,-1
 504 195 l 2,45,46
 504 258 504 258 444 258 c 0,47,48
 383 258 383 258 383 195 c 2,49,-1
 383 130 l 2,50,51
 383 69 383 69 444 69 c 0,42,43
EndSplineSet
EndChar

StartChar: ampersand
Encoding: 38 38 8
Width: 600
Flags: W
LayerCount: 2
Fore
SplineSet
232 -10 m 0,0,1
 145 -10 145 -10 97 37 c 128,-1,2
 49 84 49 84 49 167 c 2,3,-1
 49 276 l 2,4,5
 49 331 49 331 76 370 c 128,-1,6
 103 409 103 409 153 424 c 1,7,8
 95 505 95 505 95 576 c 0,9,10
 95 650 95 650 146 695 c 128,-1,11
 197 740 197 740 281 740 c 0,12,13
 370 740 370 740 422.5 692 c 128,-1,14
 475 644 475 644 475 563 c 1,15,-1
 371 563 l 1,16,17
 371 603 371 603 346.5 626 c 128,-1,18
 322 649 322 649 281 649 c 0,19,20
 243 649 243 649 220 628 c 128,-1,21
 197 607 197 607 197 570 c 0,22,23
 197 546 197 546 208.5 517 c 128,-1,24
 220 488 220 488 240 460 c 2,25,-1
 395 244 l 1,26,-1
 458 360 l 1,27,-1
 566 360 l 1,28,-1
 456 159 l 1,29,-1
 570 0 l 1,30,-1
 458 0 l 1,31,-1
 403 76 l 1,32,33
 331 -10 331 -10 232 -10 c 0,0,1
239 82 m 0,34,35
 270 82 270 82 298.5 101 c 128,-1,36
 327 120 327 120 347 154 c 1,37,-1
 205 351 l 1,38,39
 154 337 154 337 154 276 c 2,40,-1
 154 167 l 2,41,42
 154 126 154 126 176.5 104 c 128,-1,43
 199 82 199 82 239 82 c 0,34,35
EndSplineSet
EndChar

StartChar: quotesingle
Encoding: 39 39 9
Width: 600
Flags: W
LayerCount: 2
Fore
SplineSet
253 430 m 1,0,-1
 240 577 l 1,1,-1
 240 730 l 1,2,-1
 352 730 l 1,3,-1
 352 577 l 1,4,-1
 341 430 l 1,5,-1
 253 430 l 1,0,-1
EndSplineSet
EndChar

StartChar: parenleft
Encoding: 40 40 10
Width: 600
Flags: W
LayerCount: 2
Fore
SplineSet
485 -120 m 1,0,1
 338 -82 338 -82 257 20 c 128,-1,2
 176 122 176 122 176 270 c 2,3,-1
 176 450 l 2,4,5
 176 547 176 547 213.5 626 c 128,-1,6
 251 705 251 705 320 760.5 c 128,-1,7
 389 816 389 816 485 840 c 1,8,-1
 485 736 l 1,9,10
 392 713 392 713 338 636.5 c 128,-1,11
 284 560 284 560 284 450 c 2,12,-1
 284 270 l 2,13,14
 284 161 284 161 338 85.5 c 128,-1,15
 392 10 392 10 485 -12 c 1,16,-1
 485 -120 l 1,0,1
EndSplineSet
EndChar

StartChar: parenright
Encoding: 41 41 11
Width: 600
Flags: W
LayerCount: 2
Fore
SplineSet
115 -120 m 1,0,-1
 115 -12 l 1,1,2
 208 10 208 10 262 85.5 c 128,-1,3
 316 161 316 161 316 270 c 2,4,-1
 316 450 l 2,5,6
 316 560 316 560 262 636.5 c 128,-1,7
 208 713 208 713 115 736 c 1,8,-1
 115 840 l 1,9,10
 211 816 211 816 280 760.5 c 128,-1,11
 349 705 349 705 386.5 626 c 128,-1,12
 424 547 424 547 424 450 c 2,13,-1
 424 270 l 2,14,15
 424 122 424 122 343 20 c 128,-1,16
 262 -82 262 -82 115 -120 c 1,0,-1
EndSplineSet
EndChar

StartChar: asterisk
Encoding: 42 42 12
Width: 600
Flags: W
LayerCount: 2
Fore
SplineSet
186 90 m 1,0,-1
 104 148 l 1,1,-1
 151 216 l 2,2,3
 172 246 172 246 205 275 c 128,-1,4
 238 304 238 304 262 323 c 1,5,-1
 259 329 l 1,6,7
 229 330 229 330 186 335.5 c 128,-1,8
 143 341 143 341 110 353 c 2,9,-1
 33 381 l 1,10,-1
 67 476 l 1,11,-1
 144 448 l 2,12,13
 178 435 178 435 214.5 411 c 128,-1,14
 251 387 251 387 275 368 c 1,15,-1
 280 372 l 1,16,17
 271 401 271 401 260.5 445.5 c 128,-1,18
 250 490 250 490 250 527 c 2,19,-1
 250 610 l 1,20,-1
 350 610 l 1,21,-1
 350 527 l 2,22,23
 350 490 350 490 339 445.5 c 128,-1,24
 328 401 328 401 319 372 c 1,25,-1
 324 369 l 1,26,27
 348 387 348 387 384.5 411 c 128,-1,28
 421 435 421 435 455 448 c 2,29,-1
 533 476 l 1,30,-1
 567 381 l 1,31,-1
 490 353 l 2,32,33
 456 341 456 341 413.5 335.5 c 128,-1,34
 371 330 371 330 341 329 c 1,35,-1
 338 322 l 1,36,37
 362 304 362 304 394.5 274.5 c 128,-1,38
 427 245 427 245 448 216 c 2,39,-1
 496 148 l 1,40,-1
 414 90 l 1,41,-1
 365 159 l 2,42,43
 345 188 345 188 328.5 229.5 c 128,-1,44
 312 271 312 271 303 300 c 1,45,-1
 296 300 l 1,46,47
 287 271 287 271 270.5 229.5 c 128,-1,48
 254 188 254 188 233 159 c 2,49,-1
 186 90 l 1,0,-1
EndSplineSet
EndChar

StartChar: plus
Encoding: 43 43 13
Width: 600
Flags: W
LayerCount: 2
Fore
SplineSet
247 94 m 1,0,-1
 247 281 l 1,1,-1
 62 281 l 1,2,-1
 62 379 l 1,3,-1
 247 379 l 1,4,-1
 247 567 l 1,5,-1
 353 567 l 1,6,-1
 353 379 l 1,7,-1
 538 379 l 1,8,-1
 538 281 l 1,9,-1
 353 281 l 1,10,-1
 353 94 l 1,11,-1
 247 94 l 1,0,-1
EndSplineSet
EndChar

StartChar: comma
Encoding: 44 44 14
Width: 600
Flags: W
LayerCount: 2
Fore
SplineSet
158 -160 m 1,0,-1
 238 151 l 1,1,-1
 383 151 l 1,2,-1
 253 -160 l 1,3,-1
 158 -160 l 1,0,-1
EndSplineSet
EndChar

StartChar: hyphen
Encoding: 45 45 15
Width: 600
Flags: W
LayerCount: 2
Fore
SplineSet
140 281 m 1,0,-1
 140 379 l 1,1,-1
 460 379 l 1,2,-1
 460 281 l 1,3,-1
 140 281 l 1,0,-1
EndSplineSet
EndChar

StartChar: period
Encoding: 46 46 16
Width: 600
Flags: W
LayerCount: 2
Fore
SplineSet
300 -10 m 256,0,1
 259 -10 259 -10 235.5 13.5 c 128,-1,2
 212 37 212 37 212 77 c 0,3,4
 212 118 212 118 235.5 142.5 c 128,-1,5
 259 167 259 167 300 167 c 256,6,7
 341 167 341 167 364.5 142.5 c 128,-1,8
 388 118 388 118 388 77 c 0,9,10
 388 37 388 37 364.5 13.5 c 128,-1,11
 341 -10 341 -10 300 -10 c 256,0,1
EndSplineSet
EndChar

StartChar: slash
Encoding: 47 47 17
Width: 600
Flags: W
LayerCount: 2
Fore
SplineSet
68 -110 m 1,0,-1
 420 830 l 1,1,-1
 533 830 l 1,2,-1
 181 -110 l 1,3,-1
 68 -110 l 1,0,-1
EndSplineSet
EndChar

StartChar: zero
Encoding: 48 48 18
Width: 600
Flags: W
LayerCount: 2
Fore
SplineSet
300 -10 m 256,0,1
 198 -10 198 -10 139 47.5 c 128,-1,2
 80 105 80 105 80 203 c 2,3,-1
 80 527 l 2,4,5
 80 625 80 625 139 682.5 c 128,-1,6
 198 740 198 740 300 740 c 256,7,8
 402 740 402 740 461 683 c 128,-1,9
 520 626 520 626 520 528 c 2,10,-1
 520 203 l 2,11,12
 520 105 520 105 461 47.5 c 128,-1,13
 402 -10 402 -10 300 -10 c 256,0,1
184 527 m 2,14,-1
 181 307 l 5,15,-1
 413 551 l 5,16,17
 412 607 412 607 383 626.5 c 128,-1,18
 354 646 354 646 300 646 c 0,19,20
 245 646 245 646 214.64180261 615.144127243 c 0,21,22
 185 585 185 585 184 527 c 2,14,-1
300 84 m 256,23,24
 354 84 354 84 385 115 c 0,25,26
 417 147 417 147 416 203 c 2,27,-1
 411 409 l 1,28,-1
 182 183 l 1,29,30
 183 127 183 127 214.5 105.5 c 128,-1,31
 246 84 246 84 300 84 c 256,23,24
EndSplineSet
EndChar

StartChar: one
Encoding: 49 49 19
Width: 600
Flags: W
LayerCount: 2
Fore
SplineSet
87 0 m 1,0,-1
 87 96 l 1,1,-1
 281 96 l 1,2,-1
 281 636 l 1,3,-1
 86 491 l 1,4,-1
 86 608 l 1,5,-1
 253 730 l 1,6,-1
 389 730 l 1,7,-1
 389 96 l 1,8,-1
 546 96 l 1,9,-1
 546 0 l 1,10,-1
 87 0 l 1,0,-1
EndSplineSet
EndChar

StartChar: two
Encoding: 50 50 20
Width: 600
Flags: W
LayerCount: 2
Fore
SplineSet
85 0 m 1,0,-1
 85 102 l 1,1,-1
 311 340 l 2,2,3
 363 394 363 394 387.5 437.5 c 128,-1,4
 412 481 412 481 412 524 c 0,5,6
 412 580 412 580 381.5 612 c 128,-1,7
 351 644 351 644 298 644 c 0,8,9
 240 644 240 644 206.5 610.5 c 128,-1,10
 173 577 173 577 173 519 c 1,11,-1
 65 519 l 1,12,13
 68 620 68 620 131 680 c 128,-1,14
 194 740 194 740 299 740 c 0,15,16
 400 740 400 740 460 683 c 128,-1,17
 520 626 520 626 520 530 c 0,18,19
 520 465 520 465 486.5 403 c 128,-1,20
 453 341 453 341 377 265 c 2,21,-1
 214 98 l 1,22,-1
 531 98 l 1,23,-1
 531 0 l 1,24,-1
 85 0 l 1,0,-1
EndSplineSet
EndChar

StartChar: three
Encoding: 51 51 21
Width: 600
Flags: W
LayerCount: 2
Fore
SplineSet
291 -10 m 256,0,1
 222 -10 222 -10 171.5 16 c 128,-1,2
 121 42 121 42 93 89.5 c 128,-1,3
 65 137 65 137 65 200 c 1,4,-1
 173 200 l 1,5,6
 173 145 173 145 204.5 114.5 c 128,-1,7
 236 84 236 84 292 84 c 0,8,9
 349 84 349 84 380 115.5 c 128,-1,10
 411 147 411 147 411 200 c 2,11,-1
 411 252 l 2,12,13
 411 308 411 308 379.5 338.5 c 128,-1,14
 348 369 348 369 292 369 c 2,15,-1
 210 369 l 1,16,-1
 210 459 l 1,17,-1
 378 635 l 1,18,-1
 96 635 l 1,19,-1
 96 730 l 1,20,-1
 495 730 l 1,21,-1
 495 636 l 1,22,-1
 325 462 l 1,23,24
 414 453 414 453 466.5 397.5 c 128,-1,25
 519 342 519 342 519 253 c 2,26,-1
 519 200 l 2,27,28
 519 137 519 137 490.5 89.5 c 128,-1,29
 462 42 462 42 411 16 c 128,-1,30
 360 -10 360 -10 291 -10 c 256,0,1
EndSplineSet
EndChar

StartChar: four
Encoding: 52 52 22
Width: 600
Flags: W
LayerCount: 2
Fore
SplineSet
400 0 m 1,0,-1
 400 152 l 1,1,-1
 73 152 l 1,2,-1
 73 314 l 1,3,-1
 341 730 l 1,4,-1
 460 730 l 1,5,-1
 178 288 l 1,6,-1
 178 249 l 1,7,-1
 400 249 l 1,8,-1
 400 420 l 1,9,-1
 508 420 l 1,10,-1
 508 0 l 1,11,-1
 400 0 l 1,0,-1
EndSplineSet
EndChar

StartChar: five
Encoding: 53 53 23
Width: 600
Flags: W
LayerCount: 2
Fore
SplineSet
298 -10 m 0,0,1
 203 -10 203 -10 144 38.5 c 128,-1,2
 85 87 85 87 78 169 c 1,3,-1
 186 169 l 1,4,5
 190 129 190 129 219 107 c 128,-1,6
 248 85 248 85 299 85 c 0,7,8
 356 85 356 85 385.5 115.5 c 128,-1,9
 415 146 415 146 415 202 c 2,10,-1
 415 273 l 2,11,12
 415 328 415 328 386 358.5 c 128,-1,13
 357 389 357 389 300 389 c 0,14,15
 264 389 264 389 238 372 c 128,-1,16
 212 355 212 355 200 327 c 1,17,-1
 93 327 l 1,18,-1
 98 730 l 1,19,-1
 496 730 l 1,20,-1
 496 632 l 1,21,-1
 201 632 l 1,22,-1
 199 405 l 1,23,-1
 202 405 l 1,24,25
 211 440 211 440 246 460 c 128,-1,26
 281 480 281 480 335 480 c 0,27,28
 423 480 423 480 473 425.5 c 128,-1,29
 523 371 523 371 523 273 c 2,30,-1
 523 202 l 2,31,32
 523 104 523 104 463.5 47 c 128,-1,33
 404 -10 404 -10 298 -10 c 0,0,1
EndSplineSet
EndChar

StartChar: six
Encoding: 54 54 24
Width: 600
Flags: W
LayerCount: 2
Fore
SplineSet
301 -10 m 0,0,1
 228 -10 228 -10 173.5 20 c 128,-1,2
 119 50 119 50 88.5 103.5 c 128,-1,3
 58 157 58 157 58 229 c 0,4,5
 58 276 58 276 75.5 327 c 128,-1,6
 93 378 93 378 126 436 c 2,7,-1
 294 730 l 1,8,-1
 411 730 l 1,9,-1
 211 390 l 1,10,-1
 216 386 l 1,11,12
 235 415 235 415 268 431.5 c 128,-1,13
 301 448 301 448 344 448 c 0,14,15
 403 448 403 448 447.5 420.5 c 128,-1,16
 492 393 492 393 517 343 c 128,-1,17
 542 293 542 293 542 227 c 0,18,19
 542 156 542 156 511.5 102.5 c 128,-1,20
 481 49 481 49 427 19.5 c 128,-1,21
 373 -10 373 -10 301 -10 c 0,0,1
300 84 m 256,22,23
 360 84 360 84 397.5 122.5 c 128,-1,24
 435 161 435 161 435 225 c 0,25,26
 435 288 435 288 397.5 327.5 c 128,-1,27
 360 367 360 367 300 367 c 256,28,29
 240 367 240 367 202.5 327.5 c 128,-1,30
 165 288 165 288 165 225 c 0,31,32
 165 161 165 161 202.5 122.5 c 128,-1,33
 240 84 240 84 300 84 c 256,22,23
EndSplineSet
EndChar

StartChar: seven
Encoding: 55 55 25
Width: 600
Flags: W
LayerCount: 2
Fore
SplineSet
165 0 m 1,0,-1
 429 631 l 1,1,-1
 169 631 l 1,2,-1
 169 515 l 1,3,-1
 61 515 l 1,4,-1
 61 730 l 1,5,-1
 541 730 l 1,6,-1
 541 630 l 1,7,-1
 283 0 l 1,8,-1
 165 0 l 1,0,-1
EndSplineSet
EndChar

StartChar: eight
Encoding: 56 56 26
Width: 600
Flags: W
LayerCount: 2
Fore
SplineSet
300 -10 m 256,0,1
 228 -10 228 -10 174 14.5 c 128,-1,2
 120 39 120 39 90 83.5 c 128,-1,3
 60 128 60 128 60 186 c 0,4,5
 60 248 60 248 98 299 c 128,-1,6
 136 350 136 350 201 380 c 1,7,8
 76 442 76 442 76 551 c 0,9,10
 76 606 76 606 104.5 648.5 c 128,-1,11
 133 691 133 691 183.5 716 c 128,-1,12
 234 741 234 741 300 741 c 256,13,14
 366 741 366 741 416.5 716 c 128,-1,15
 467 691 467 691 495.5 648.5 c 128,-1,16
 524 606 524 606 524 551 c 0,17,18
 524 442 524 442 399 380 c 1,19,20
 465 349 465 349 502.5 298 c 128,-1,21
 540 247 540 247 540 186 c 0,22,23
 540 127 540 127 510 83 c 128,-1,24
 480 39 480 39 426 14.5 c 128,-1,25
 372 -10 372 -10 300 -10 c 256,0,1
273 430 m 2,26,-1
 300 420 l 1,27,-1
 324 429 l 2,28,29
 366 446 366 446 392 477 c 128,-1,30
 418 508 418 508 418 546 c 0,31,32
 418 591 418 591 385.5 619.5 c 128,-1,33
 353 648 353 648 300 648 c 256,34,35
 247 648 247 648 214 619 c 128,-1,36
 181 590 181 590 181 546 c 0,37,38
 181 508 181 508 206.5 477 c 128,-1,39
 232 446 232 446 273 430 c 2,26,-1
300 83 m 256,40,41
 360 83 360 83 397.5 115 c 128,-1,42
 435 147 435 147 435 198 c 0,43,44
 435 238 435 238 408.5 271.5 c 128,-1,45
 382 305 382 305 339 322 c 2,46,-1
 300 338 l 1,47,-1
 259 321 l 2,48,49
 216 304 216 304 190.5 270.5 c 128,-1,50
 165 237 165 237 165 198 c 0,51,52
 165 147 165 147 202.5 115 c 128,-1,53
 240 83 240 83 300 83 c 256,40,41
EndSplineSet
EndChar

StartChar: nine
Encoding: 57 57 27
Width: 600
Flags: W
LayerCount: 2
Fore
SplineSet
190 0 m 1,0,-1
 388 339 l 1,1,-1
 383 342 l 1,2,3
 364 313 364 313 331.5 296.5 c 128,-1,4
 299 280 299 280 256 280 c 0,5,6
 198 280 198 280 153 308 c 128,-1,7
 108 336 108 336 83 386 c 128,-1,8
 58 436 58 436 58 502 c 0,9,10
 58 573 58 573 88.5 626.5 c 128,-1,11
 119 680 119 680 173.5 710 c 128,-1,12
 228 740 228 740 299 740 c 0,13,14
 371 740 371 740 426 710 c 128,-1,15
 481 680 481 680 511.5 626.5 c 128,-1,16
 542 573 542 573 542 503 c 0,17,18
 542 455 542 455 523.5 403.5 c 128,-1,19
 505 352 505 352 474 295 c 2,20,-1
 310 0 l 1,21,-1
 190 0 l 1,0,-1
300 362 m 256,22,23
 360 362 360 362 397.5 401 c 128,-1,24
 435 440 435 440 435 504 c 256,25,26
 435 568 435 568 397.5 607.5 c 128,-1,27
 360 647 360 647 300 647 c 256,28,29
 240 647 240 647 202.5 607.5 c 128,-1,30
 165 568 165 568 165 504 c 256,31,32
 165 440 165 440 202.5 401 c 128,-1,33
 240 362 240 362 300 362 c 256,22,23
EndSplineSet
EndChar

StartChar: colon
Encoding: 58 58 28
Width: 600
Flags: W
LayerCount: 2
Fore
SplineSet
300 401 m 256,0,1
 260 401 260 401 236 423 c 128,-1,2
 212 445 212 445 212 481 c 0,3,4
 212 516 212 516 236 538 c 128,-1,5
 260 560 260 560 300 560 c 256,6,7
 340 560 340 560 364 538 c 128,-1,8
 388 516 388 516 388 481 c 0,9,10
 388 445 388 445 364 423 c 128,-1,11
 340 401 340 401 300 401 c 256,0,1
300 -10 m 256,12,13
 260 -10 260 -10 236 12 c 128,-1,14
 212 34 212 34 212 70 c 0,15,16
 212 105 212 105 236 127 c 128,-1,17
 260 149 260 149 300 149 c 256,18,19
 340 149 340 149 364 127 c 128,-1,20
 388 105 388 105 388 70 c 0,21,22
 388 34 388 34 364 12 c 128,-1,23
 340 -10 340 -10 300 -10 c 256,12,13
EndSplineSet
EndChar

StartChar: semicolon
Encoding: 59 59 29
Width: 600
Flags: W
LayerCount: 2
Fore
SplineSet
290 401 m 2,0,1
 255 401 255 401 233 423.5 c 128,-1,2
 211 446 211 446 211 481 c 0,3,4
 211 515 211 515 233.5 537.5 c 128,-1,5
 256 560 256 560 290 560 c 2,6,-1
 310 560 l 2,7,8
 344 560 344 560 367 537.5 c 128,-1,9
 390 515 390 515 390 481 c 0,10,11
 390 446 390 446 367.5 423.5 c 128,-1,12
 345 401 345 401 310 401 c 2,13,-1
 290 401 l 2,0,1
163 -160 m 1,14,-1
 243 151 l 1,15,-1
 388 151 l 1,16,-1
 258 -160 l 1,17,-1
 163 -160 l 1,14,-1
EndSplineSet
EndChar

StartChar: less
Encoding: 60 60 30
Width: 600
Flags: W
LayerCount: 2
Fore
SplineSet
520 60 m 1,0,-1
 81 273 l 1,1,-1
 81 386 l 1,2,-1
 520 599 l 1,3,-1
 520 498 l 1,4,-1
 220 355 l 2,5,6
 200 346 200 346 182 339.5 c 128,-1,7
 164 333 164 333 155 331 c 1,8,9
 165 329 165 329 183.5 323 c 128,-1,10
 202 317 202 317 220 308 c 2,11,-1
 520 164 l 1,12,-1
 520 60 l 1,0,-1
EndSplineSet
EndChar

StartChar: equal
Encoding: 61 61 31
Width: 600
Flags: W
LayerCount: 2
Fore
SplineSet
84 403 m 1,0,-1
 84 501 l 1,1,-1
 517 501 l 1,2,-1
 517 403 l 1,3,-1
 84 403 l 1,0,-1
84 160 m 1,4,-1
 84 258 l 1,5,-1
 517 258 l 1,6,-1
 517 160 l 1,7,-1
 84 160 l 1,4,-1
EndSplineSet
EndChar

StartChar: greater
Encoding: 62 62 32
Width: 600
Flags: W
LayerCount: 2
Fore
SplineSet
81 60 m 1,0,-1
 81 162 l 1,1,-1
 380 305 l 2,2,3
 400 314 400 314 418 320 c 128,-1,4
 436 326 436 326 445 328 c 1,5,6
 435 331 435 331 416.5 337 c 128,-1,7
 398 343 398 343 380 352 c 2,8,-1
 81 495 l 1,9,-1
 81 599 l 1,10,-1
 520 386 l 1,11,-1
 520 273 l 1,12,-1
 81 60 l 1,0,-1
EndSplineSet
EndChar

StartChar: question
Encoding: 63 63 33
Width: 600
Flags: W
LayerCount: 2
Fore
SplineSet
202 211 m 1,0,-1
 201 402 l 1,1,-1
 266 402 l 2,2,3
 322 402 322 402 356 432.5 c 128,-1,4
 390 463 390 463 390 515 c 256,5,6
 390 567 390 567 356 598 c 128,-1,7
 322 629 322 629 265 629 c 2,8,-1
 128 629 l 1,9,-1
 128 730 l 1,10,-1
 262 730 l 2,11,12
 333 730 333 730 386 703.5 c 128,-1,13
 439 677 439 677 468.5 629 c 128,-1,14
 498 581 498 581 498 515 c 0,15,16
 498 456 498 456 473 410 c 128,-1,17
 448 364 448 364 404.5 337.5 c 128,-1,18
 361 311 361 311 303 309 c 1,19,-1
 303 211 l 1,20,-1
 202 211 l 1,0,-1
237 -5 m 2,21,22
 208 -5 208 -5 190 12.5 c 128,-1,23
 172 30 172 30 172 58 c 256,24,25
 172 86 172 86 190 103.5 c 128,-1,26
 208 121 208 121 237 121 c 2,27,-1
 267 121 l 2,28,29
 297 121 297 121 314 103.5 c 128,-1,30
 331 86 331 86 331 59 c 0,31,32
 331 31 331 31 313 13 c 128,-1,33
 295 -5 295 -5 266 -5 c 2,34,-1
 237 -5 l 2,21,22
EndSplineSet
EndChar

StartChar: at
Encoding: 64 64 34
Width: 600
Flags: W
LayerCount: 2
Fore
SplineSet
325 -180 m 2,0,1
 237 -180 237 -180 173 -144.5 c 128,-1,2
 109 -109 109 -109 74 -44 c 128,-1,3
 39 21 39 21 39 110 c 2,4,-1
 39 450 l 2,5,6
 39 540 39 540 72.5 605 c 128,-1,7
 106 670 106 670 167.5 705 c 128,-1,8
 229 740 229 740 315 740 c 0,9,10
 393 740 393 740 449.5 710 c 128,-1,11
 506 680 506 680 536 625 c 128,-1,12
 566 570 566 570 566 497 c 2,13,-1
 566 65 l 1,14,-1
 483 65 l 1,15,-1
 486 120 l 1,16,-1
 471 120 l 1,17,18
 463 90 463 90 435.5 72.5 c 128,-1,19
 408 55 408 55 367 55 c 0,20,21
 303 55 303 55 268.5 96 c 128,-1,22
 234 137 234 137 234 213 c 2,23,-1
 234 330 l 2,24,25
 234 406 234 406 268.5 447 c 128,-1,26
 303 488 303 488 367 488 c 0,27,28
 409 488 409 488 436.5 469.5 c 128,-1,29
 464 451 464 451 472 420 c 1,30,-1
 487 420 l 1,31,-1
 474 489 l 1,32,-1
 474 497 l 2,33,34
 474 572 474 572 433 616 c 128,-1,35
 392 660 392 660 315 660 c 0,36,37
 228 660 228 660 179.5 605 c 128,-1,38
 131 550 131 550 131 450 c 2,39,-1
 131 110 l 2,40,41
 131 14 131 14 182.5 -40 c 128,-1,42
 234 -94 234 -94 325 -94 c 2,43,-1
 395 -94 l 1,44,-1
 395 -180 l 1,45,-1
 325 -180 l 2,0,1
400 125 m 0,46,47
 438 125 438 125 456 148 c 128,-1,48
 474 171 474 171 474 220 c 2,49,-1
 474 331 l 2,50,51
 474 418 474 418 400 418 c 256,52,53
 326 418 326 418 326 330 c 2,54,-1
 326 213 l 2,55,56
 326 167 326 167 344.5 146 c 128,-1,57
 363 125 363 125 400 125 c 0,46,47
EndSplineSet
EndChar

StartChar: A
Encoding: 65 65 35
Width: 600
Flags: W
LayerCount: 2
Fore
SplineSet
43 0 m 1,0,-1
 229 730 l 1,1,-1
 371 730 l 1,2,-1
 558 0 l 1,3,-1
 448 0 l 1,4,-1
 404 185 l 1,5,-1
 197 185 l 1,6,-1
 153 0 l 1,7,-1
 43 0 l 1,0,-1
217 275 m 1,8,-1
 383 275 l 1,9,-1
 333 485 l 2,10,11
 320 541 320 541 311.5 582 c 128,-1,12
 303 623 303 623 300 639 c 1,13,14
 297 623 297 623 289 582 c 128,-1,15
 281 541 281 541 267 486 c 2,16,-1
 217 275 l 1,8,-1
EndSplineSet
EndChar

StartChar: B
Encoding: 66 66 36
Width: 600
Flags: W
LayerCount: 2
Fore
SplineSet
85 0 m 1,0,-1
 85 730 l 1,1,-1
 300 730 l 2,2,3
 403 730 403 730 462.5 679.5 c 128,-1,4
 522 629 522 629 522 542 c 0,5,6
 522 480 522 480 489.5 438.5 c 128,-1,7
 457 397 457 397 402 385 c 1,8,9
 464 372 464 372 501.5 325 c 128,-1,10
 539 278 539 278 539 205 c 0,11,12
 539 111 539 111 478.5 55.5 c 128,-1,13
 418 0 418 0 314 0 c 2,14,-1
 85 0 l 1,0,-1
190 424 m 1,15,-1
 299 424 l 2,16,17
 352 424 352 424 383.5 452.5 c 128,-1,18
 415 481 415 481 415 531 c 0,19,20
 415 580 415 580 384 608.5 c 128,-1,21
 353 637 353 637 300 637 c 2,22,-1
 190 637 l 1,23,-1
 190 424 l 1,15,-1
190 93 m 1,24,-1
 305 93 l 2,25,26
 363 93 363 93 397 124.5 c 128,-1,27
 431 156 431 156 431 210 c 0,28,29
 431 266 431 266 397 300 c 128,-1,30
 363 334 363 334 305 334 c 2,31,-1
 190 334 l 1,32,-1
 190 93 l 1,24,-1
EndSplineSet
EndChar

StartChar: C
Encoding: 67 67 37
Width: 600
Flags: W
LayerCount: 2
Fore
SplineSet
304 -10 m 0,0,1
 201 -10 201 -10 140.5 47.5 c 128,-1,2
 80 105 80 105 80 203 c 2,3,-1
 80 527 l 2,4,5
 80 626 80 626 140.5 683 c 128,-1,6
 201 740 201 740 304 740 c 0,7,8
 406 740 406 740 466.5 682.5 c 128,-1,9
 527 625 527 625 527 527 c 1,10,-1
 419 527 l 1,11,12
 419 584 419 584 388.5 614 c 128,-1,13
 358 644 358 644 304 644 c 0,14,15
 249 644 249 644 218.5 614 c 128,-1,16
 188 584 188 584 188 528 c 2,17,-1
 188 203 l 2,18,19
 188 146 188 146 218.5 116 c 128,-1,20
 249 86 249 86 304 86 c 0,21,22
 358 86 358 86 388.5 116 c 128,-1,23
 419 146 419 146 419 203 c 1,24,-1
 527 203 l 1,25,26
 527 105 527 105 466.5 47.5 c 128,-1,27
 406 -10 406 -10 304 -10 c 0,0,1
EndSplineSet
EndChar

StartChar: D
Encoding: 68 68 38
Width: 600
Flags: W
LayerCount: 2
Fore
SplineSet
83 0 m 1,0,-1
 83 730 l 1,1,-1
 287 730 l 2,2,3
 359 730 359 730 412 702.5 c 128,-1,4
 465 675 465 675 494.5 624.5 c 128,-1,5
 524 574 524 574 524 507 c 2,6,-1
 524 225 l 2,7,8
 524 156 524 156 494.5 106 c 128,-1,9
 465 56 465 56 412 28 c 128,-1,10
 359 0 359 0 287 0 c 2,11,-1
 83 0 l 1,0,-1
191 98 m 1,12,-1
 287 98 l 2,13,14
 347 98 347 98 381.5 131.5 c 128,-1,15
 416 165 416 165 416 225 c 2,16,-1
 416 507 l 2,17,18
 416 565 416 565 381.5 598.5 c 128,-1,19
 347 632 347 632 287 632 c 2,20,-1
 191 632 l 1,21,-1
 191 98 l 1,12,-1
EndSplineSet
EndChar

StartChar: E
Encoding: 69 69 39
Width: 600
Flags: W
LayerCount: 2
Fore
SplineSet
94 0 m 1,0,-1
 94 730 l 1,1,-1
 523 730 l 1,2,-1
 523 634 l 1,3,-1
 200 634 l 1,4,-1
 200 427 l 1,5,-1
 488 427 l 1,6,-1
 488 332 l 1,7,-1
 200 332 l 1,8,-1
 200 96 l 1,9,-1
 523 96 l 1,10,-1
 523 0 l 1,11,-1
 94 0 l 1,0,-1
EndSplineSet
EndChar

StartChar: F
Encoding: 70 70 40
Width: 600
Flags: W
LayerCount: 2
Fore
SplineSet
88 0 m 1,0,-1
 88 731 l 1,1,-1
 530 731 l 1,2,-1
 530 631 l 1,3,-1
 194 631 l 1,4,-1
 194 413 l 1,5,-1
 504 413 l 1,6,-1
 504 313 l 1,7,-1
 196 313 l 1,8,-1
 196 0 l 1,9,-1
 88 0 l 1,0,-1
EndSplineSet
EndChar

StartChar: G
Encoding: 71 71 41
Width: 600
Flags: W
LayerCount: 2
Fore
SplineSet
304 -10 m 0,0,1
 201 -10 201 -10 140.5 47.5 c 128,-1,2
 80 105 80 105 80 203 c 2,3,-1
 80 527 l 2,4,5
 80 626 80 626 140.5 683 c 128,-1,6
 201 740 201 740 304 740 c 0,7,8
 406 740 406 740 466.5 682.5 c 128,-1,9
 527 625 527 625 527 527 c 1,10,-1
 419 527 l 1,11,12
 419 584 419 584 388.5 614 c 128,-1,13
 358 644 358 644 304 644 c 0,14,15
 249 644 249 644 218.5 614 c 128,-1,16
 188 584 188 584 188 528 c 2,17,-1
 188 203 l 2,18,19
 188 146 188 146 218.5 115.5 c 128,-1,20
 249 85 249 85 304 85 c 0,21,22
 358 85 358 85 388.5 115.5 c 128,-1,23
 419 146 419 146 419 203 c 2,24,-1
 419 285 l 1,25,-1
 283 285 l 1,26,-1
 283 380 l 1,27,-1
 527 380 l 1,28,-1
 527 203 l 2,29,30
 527 105 527 105 466.5 47.5 c 128,-1,31
 406 -10 406 -10 304 -10 c 0,0,1
EndSplineSet
EndChar

StartChar: H
Encoding: 72 72 42
Width: 600
Flags: W
LayerCount: 2
Fore
SplineSet
85 0 m 1,0,-1
 85 730 l 1,1,-1
 193 730 l 1,2,-1
 193 428 l 1,3,-1
 407 428 l 1,4,-1
 407 730 l 1,5,-1
 515 730 l 1,6,-1
 515 0 l 1,7,-1
 407 0 l 1,8,-1
 407 328 l 1,9,-1
 193 328 l 1,10,-1
 193 0 l 1,11,-1
 85 0 l 1,0,-1
EndSplineSet
EndChar

StartChar: I
Encoding: 73 73 43
Width: 600
Flags: W
LayerCount: 2
Fore
SplineSet
98 0 m 1,0,-1
 98 96 l 1,1,-1
 245 96 l 1,2,-1
 245 634 l 1,3,-1
 98 634 l 1,4,-1
 98 730 l 1,5,-1
 503 730 l 1,6,-1
 503 634 l 1,7,-1
 355 634 l 1,8,-1
 355 96 l 1,9,-1
 503 96 l 1,10,-1
 503 0 l 1,11,-1
 98 0 l 1,0,-1
EndSplineSet
EndChar

StartChar: J
Encoding: 74 74 44
Width: 600
Flags: W
LayerCount: 2
Fore
SplineSet
270 -10 m 256,0,1
 162 -10 162 -10 100 50 c 128,-1,2
 38 110 38 110 38 213 c 1,3,-1
 146 213 l 1,4,5
 146 152 146 152 178.5 118.5 c 128,-1,6
 211 85 211 85 270 85 c 0,7,8
 328 85 328 85 361.5 118.5 c 128,-1,9
 395 152 395 152 395 212 c 2,10,-1
 395 631 l 1,11,-1
 190 631 l 1,12,-1
 190 730 l 1,13,-1
 503 730 l 1,14,-1
 503 212 l 2,15,16
 503 109 503 109 440.5 49.5 c 128,-1,17
 378 -10 378 -10 270 -10 c 256,0,1
EndSplineSet
EndChar

StartChar: K
Encoding: 75 75 45
Width: 600
Flags: W
LayerCount: 2
Fore
SplineSet
84 0 m 1,0,-1
 84 730 l 1,1,-1
 192 730 l 1,2,-1
 192 426 l 1,3,-1
 289 426 l 1,4,-1
 438 730 l 1,5,-1
 556 730 l 1,6,-1
 384 380 l 1,7,-1
 565 0 l 1,8,-1
 443 0 l 1,9,-1
 287 329 l 1,10,-1
 192 329 l 1,11,-1
 192 0 l 1,12,-1
 84 0 l 1,0,-1
EndSplineSet
EndChar

StartChar: L
Encoding: 76 76 46
Width: 600
Flags: W
LayerCount: 2
Fore
SplineSet
109 0 m 1,0,-1
 109 730 l 1,1,-1
 217 730 l 1,2,-1
 217 99 l 1,3,-1
 537 99 l 1,4,-1
 537 0 l 1,5,-1
 109 0 l 1,0,-1
EndSplineSet
EndChar

StartChar: M
Encoding: 77 77 47
Width: 600
Flags: W
LayerCount: 2
Fore
SplineSet
66 0 m 1,0,-1
 66 730 l 1,1,-1
 199 730 l 1,2,-1
 274 496 l 2,3,4
 284 462 284 462 291 432.5 c 128,-1,5
 298 403 298 403 302 387 c 1,6,7
 305 403 305 403 312 433 c 128,-1,8
 319 463 319 463 329 497 c 2,9,-1
 401 730 l 1,10,-1
 534 730 l 1,11,-1
 534 0 l 1,12,-1
 432 0 l 1,13,-1
 432 246 l 2,14,15
 432 293 432 293 434 350 c 128,-1,16
 436 407 436 407 440 466 c 128,-1,17
 444 525 444 525 448.5 578.5 c 128,-1,18
 453 632 453 632 458 672 c 1,19,-1
 349 317 l 1,20,-1
 251 317 l 1,21,-1
 141 672 l 1,22,23
 145 633 145 633 150 581.5 c 128,-1,24
 155 530 155 530 159 472 c 128,-1,25
 163 414 163 414 166 355.5 c 128,-1,26
 169 297 169 297 169 246 c 2,27,-1
 169 0 l 1,28,-1
 66 0 l 1,0,-1
EndSplineSet
EndChar

StartChar: N
Encoding: 78 78 48
Width: 600
Flags: W
LayerCount: 2
Fore
SplineSet
81 0 m 1,0,-1
 81 730 l 1,1,-1
 218 730 l 1,2,-1
 430 123 l 1,3,4
 428 151 428 151 425 191 c 128,-1,5
 422 231 422 231 420.5 274 c 128,-1,6
 419 317 419 317 419 353 c 2,7,-1
 419 730 l 1,8,-1
 519 730 l 1,9,-1
 519 0 l 1,10,-1
 383 0 l 1,11,-1
 171 607 l 1,12,13
 173 580 173 580 175.5 541.5 c 128,-1,14
 178 503 178 503 180 461 c 128,-1,15
 182 419 182 419 182 383 c 2,16,-1
 182 0 l 1,17,-1
 81 0 l 1,0,-1
EndSplineSet
EndChar

StartChar: O
Encoding: 79 79 49
Width: 600
Flags: W
LayerCount: 2
Fore
SplineSet
300 -10 m 256,0,1
 198 -10 198 -10 139 47.5 c 128,-1,2
 80 105 80 105 80 203 c 2,3,-1
 80 527 l 2,4,5
 80 625 80 625 139 682.5 c 128,-1,6
 198 740 198 740 300 740 c 256,7,8
 402 740 402 740 461 683 c 128,-1,9
 520 626 520 626 520 528 c 2,10,-1
 520 203 l 2,11,12
 520 105 520 105 461 47.5 c 128,-1,13
 402 -10 402 -10 300 -10 c 256,0,1
300 86 m 256,14,15
 354 86 354 86 383 116 c 128,-1,16
 412 146 412 146 412 203 c 2,17,-1
 412 527 l 2,18,19
 412 584 412 584 383.5 614 c 128,-1,20
 355 644 355 644 300 644 c 256,21,22
 245 644 245 644 216.5 614 c 128,-1,23
 188 584 188 584 188 527 c 2,24,-1
 188 203 l 2,25,26
 188 146 188 146 217 116 c 128,-1,27
 246 86 246 86 300 86 c 256,14,15
EndSplineSet
EndChar

StartChar: P
Encoding: 80 80 50
Width: 600
Flags: W
LayerCount: 2
Fore
SplineSet
84 0 m 1,0,-1
 84 730 l 1,1,-1
 323 730 l 2,2,3
 394 730 394 730 446.5 703 c 128,-1,4
 499 676 499 676 527.5 626.5 c 128,-1,5
 556 577 556 577 556 510 c 256,6,7
 556 443 556 443 527 393.5 c 128,-1,8
 498 344 498 344 446 317 c 128,-1,9
 394 290 394 290 323 290 c 2,10,-1
 192 290 l 1,11,-1
 192 0 l 1,12,-1
 84 0 l 1,0,-1
192 387 m 1,13,-1
 323 387 l 2,14,15
 379 387 379 387 412.5 420.5 c 128,-1,16
 446 454 446 454 446 510 c 256,17,18
 446 566 446 566 412.5 599.5 c 128,-1,19
 379 633 379 633 323 633 c 2,20,-1
 192 633 l 1,21,-1
 192 387 l 1,13,-1
EndSplineSet
EndChar

StartChar: Q
Encoding: 81 81 51
Width: 600
Flags: W
LayerCount: 2
Fore
SplineSet
415 -180 m 1,0,-1
 312 -10 l 1,1,2
 305 -10 305 -10 300 -10 c 0,3,4
 231 -10 231 -10 180.5 17 c 128,-1,5
 130 44 130 44 102 92.5 c 128,-1,6
 74 141 74 141 74 207 c 2,7,-1
 74 524 l 2,8,9
 74 622 74 622 135.5 681 c 128,-1,10
 197 740 197 740 300 740 c 0,11,12
 369 740 369 740 419.5 713 c 128,-1,13
 470 686 470 686 498 637.5 c 128,-1,14
 526 589 526 589 526 524 c 2,15,-1
 526 207 l 2,16,17
 526 140 526 140 497 90 c 128,-1,18
 468 40 468 40 416 15 c 1,19,-1
 535 -180 l 1,20,-1
 415 -180 l 1,0,-1
300 85 m 256,21,22
 355 85 355 85 386.5 118 c 128,-1,23
 418 151 418 151 418 207 c 2,24,-1
 418 524 l 2,25,26
 418 580 418 580 386.5 612.5 c 128,-1,27
 355 645 355 645 300 645 c 256,28,29
 245 645 245 645 213.5 612.5 c 128,-1,30
 182 580 182 580 182 524 c 2,31,-1
 182 207 l 2,32,33
 182 151 182 151 213.5 118 c 128,-1,34
 245 85 245 85 300 85 c 256,21,22
EndSplineSet
EndChar

StartChar: R
Encoding: 82 82 52
Width: 600
Flags: W
LayerCount: 2
Fore
SplineSet
84 0 m 1,0,-1
 84 730 l 1,1,-1
 313 730 l 2,2,3
 381 730 381 730 432.5 703.5 c 128,-1,4
 484 677 484 677 512.5 629 c 128,-1,5
 541 581 541 581 541 516 c 0,6,7
 541 443 541 443 503.5 389.5 c 128,-1,8
 466 336 466 336 403 314 c 1,9,-1
 551 0 l 1,10,-1
 428 0 l 1,11,-1
 295 300 l 1,12,-1
 192 300 l 1,13,-1
 192 0 l 1,14,-1
 84 0 l 1,0,-1
192 396 m 1,15,-1
 313 396 l 2,16,17
 367 396 367 396 399 428 c 128,-1,18
 431 460 431 460 431 514 c 0,19,20
 431 569 431 569 398.5 601.5 c 128,-1,21
 366 634 366 634 313 634 c 2,22,-1
 192 634 l 1,23,-1
 192 396 l 1,15,-1
EndSplineSet
EndChar

StartChar: S
Encoding: 83 83 53
Width: 600
Flags: W
LayerCount: 2
Fore
SplineSet
303 -10 m 0,0,1
 193 -10 193 -10 129.5 44.5 c 128,-1,2
 66 99 66 99 65 193 c 1,3,-1
 173 193 l 1,4,5
 173 143 173 143 207.5 114.5 c 128,-1,6
 242 86 242 86 304 86 c 0,7,8
 362 86 362 86 395 114 c 128,-1,9
 428 142 428 142 428 191 c 0,10,11
 428 231 428 231 405 261 c 128,-1,12
 382 291 382 291 341 303 c 2,13,-1
 250 330 l 2,14,15
 169 353 169 353 125.5 408.5 c 128,-1,16
 82 464 82 464 82 541 c 0,17,18
 82 601 82 601 109 646 c 128,-1,19
 136 691 136 691 186 716 c 128,-1,20
 236 741 236 741 304 741 c 0,21,22
 404 741 404 741 464.5 686.5 c 128,-1,23
 525 632 525 632 526 542 c 1,24,-1
 418 542 l 1,25,26
 418 590 418 590 388 617.5 c 128,-1,27
 358 645 358 645 302 645 c 0,28,29
 249 645 249 645 219.5 619.5 c 128,-1,30
 190 594 190 594 190 548 c 0,31,32
 190 507 190 507 212 477.5 c 128,-1,33
 234 448 234 448 276 435 c 2,34,-1
 369 408 l 2,35,36
 449 384 449 384 492.5 328.5 c 128,-1,37
 536 273 536 273 536 195 c 0,38,39
 536 133 536 133 506.5 87 c 128,-1,40
 477 41 477 41 425 15.5 c 128,-1,41
 373 -10 373 -10 303 -10 c 0,0,1
EndSplineSet
EndChar

StartChar: T
Encoding: 84 84 54
Width: 600
Flags: W
LayerCount: 2
Fore
SplineSet
246 0 m 1,0,-1
 246 631 l 1,1,-1
 51 631 l 1,2,-1
 51 731 l 1,3,-1
 550 731 l 1,4,-1
 550 631 l 1,5,-1
 354 631 l 1,6,-1
 354 0 l 1,7,-1
 246 0 l 1,0,-1
EndSplineSet
EndChar

StartChar: U
Encoding: 85 85 55
Width: 600
Flags: W
LayerCount: 2
Fore
SplineSet
300 -10 m 256,0,1
 195 -10 195 -10 138 47.5 c 128,-1,2
 81 105 81 105 81 204 c 2,3,-1
 81 730 l 1,4,-1
 189 730 l 1,5,-1
 189 205 l 2,6,7
 189 149 189 149 217 117 c 128,-1,8
 245 85 245 85 300 85 c 256,9,10
 355 85 355 85 383 117 c 128,-1,11
 411 149 411 149 411 205 c 2,12,-1
 411 730 l 1,13,-1
 519 730 l 1,14,-1
 519 204 l 2,15,16
 519 104 519 104 462 47 c 128,-1,17
 405 -10 405 -10 300 -10 c 256,0,1
EndSplineSet
EndChar

StartChar: V
Encoding: 86 86 56
Width: 600
Flags: W
LayerCount: 2
Fore
SplineSet
228 0 m 1,0,-1
 43 730 l 1,1,-1
 154 730 l 1,2,-1
 271 245 l 2,3,4
 282 201 282 201 290.5 158.5 c 128,-1,5
 299 116 299 116 303 93 c 1,6,7
 307 116 307 116 315 158.5 c 128,-1,8
 323 201 323 201 333 245 c 2,9,-1
 449 730 l 1,10,-1
 558 730 l 1,11,-1
 372 0 l 1,12,-1
 228 0 l 1,0,-1
EndSplineSet
EndChar

StartChar: W
Encoding: 87 87 57
Width: 600
Flags: W
LayerCount: 2
Fore
SplineSet
100 0 m 1,0,-1
 21 730 l 1,1,-1
 118 730 l 1,2,-1
 167 206 l 2,3,4
 170 176 170 176 172.5 138 c 128,-1,5
 175 100 175 100 175 76 c 1,6,7
 178 100 178 100 181.5 138 c 128,-1,8
 185 176 185 176 189 206 c 2,9,-1
 252 730 l 1,10,-1
 352 730 l 1,11,-1
 411 206 l 2,12,13
 414 176 414 176 418.5 138 c 128,-1,14
 423 100 423 100 425 76 c 1,15,16
 427 100 427 100 429.5 138 c 128,-1,17
 432 176 432 176 435 206 c 2,18,-1
 485 730 l 1,19,-1
 580 730 l 1,20,-1
 497 0 l 1,21,-1
 372 0 l 1,22,-1
 313 531 l 2,23,24
 310 562 310 562 306.5 599 c 128,-1,25
 303 636 303 636 301 659 c 1,26,27
 299 636 299 636 296 599 c 128,-1,28
 293 562 293 562 289 531 c 2,29,-1
 226 0 l 1,30,-1
 100 0 l 1,0,-1
EndSplineSet
EndChar

StartChar: X
Encoding: 88 88 58
Width: 600
Flags: W
LayerCount: 2
Fore
SplineSet
34 0 m 1,0,-1
 240 372 l 1,1,-1
 46 730 l 1,2,-1
 168 730 l 1,3,-1
 270 531 l 2,4,5
 279 512 279 512 288 493 c 128,-1,6
 297 474 297 474 302 464 c 1,7,8
 306 474 306 474 314.5 493 c 128,-1,9
 323 512 323 512 333 531 c 2,10,-1
 437 730 l 1,11,-1
 554 730 l 1,12,-1
 360 376 l 1,13,-1
 566 0 l 1,14,-1
 444 0 l 1,15,-1
 331 216 l 2,16,17
 321 235 321 235 312 254.5 c 128,-1,18
 303 274 303 274 298 285 c 1,19,20
 294 274 294 274 285 254.5 c 128,-1,21
 276 235 276 235 267 217 c 2,22,-1
 152 0 l 1,23,-1
 34 0 l 1,0,-1
EndSplineSet
EndChar

StartChar: Y
Encoding: 89 89 59
Width: 600
Flags: W
LayerCount: 2
Fore
SplineSet
246 0 m 1,0,-1
 246 269 l 1,1,-1
 29 730 l 1,2,-1
 141 730 l 1,3,-1
 270 454 l 2,4,5
 283 427 283 427 291 403 c 128,-1,6
 299 379 299 379 302 367 c 1,7,8
 305 379 305 379 313 403 c 128,-1,9
 321 427 321 427 333 454 c 2,10,-1
 459 730 l 1,11,-1
 571 730 l 1,12,-1
 354 269 l 1,13,-1
 354 0 l 1,14,-1
 246 0 l 1,0,-1
EndSplineSet
EndChar

StartChar: Z
Encoding: 90 90 60
Width: 600
Flags: W
LayerCount: 2
Fore
SplineSet
82 0 m 1,0,-1
 82 105 l 1,1,-1
 393 631 l 1,2,-1
 88 631 l 1,3,-1
 88 730 l 1,4,-1
 508 730 l 1,5,-1
 508 625 l 1,6,-1
 197 99 l 1,7,-1
 518 99 l 1,8,-1
 518 0 l 1,9,-1
 82 0 l 1,0,-1
EndSplineSet
EndChar

StartChar: bracketleft
Encoding: 91 91 61
Width: 600
Flags: W
LayerCount: 2
Fore
SplineSet
195 -110 m 1,0,-1
 195 830 l 1,1,-1
 458 830 l 1,2,-1
 458 732 l 1,3,-1
 303 732 l 1,4,-1
 303 -12 l 1,5,-1
 458 -12 l 1,6,-1
 458 -110 l 1,7,-1
 195 -110 l 1,0,-1
EndSplineSet
EndChar

StartChar: backslash
Encoding: 92 92 62
Width: 600
Flags: W
LayerCount: 2
Fore
SplineSet
419 -110 m 1,0,-1
 67 830 l 1,1,-1
 180 830 l 1,2,-1
 532 -110 l 1,3,-1
 419 -110 l 1,0,-1
EndSplineSet
EndChar

StartChar: bracketright
Encoding: 93 93 63
Width: 600
Flags: W
LayerCount: 2
Fore
SplineSet
143 -110 m 1,0,-1
 143 -12 l 1,1,-1
 298 -12 l 1,2,-1
 298 732 l 1,3,-1
 143 732 l 1,4,-1
 143 830 l 1,5,-1
 406 830 l 1,6,-1
 406 -110 l 1,7,-1
 143 -110 l 1,0,-1
EndSplineSet
EndChar

StartChar: asciicircum
Encoding: 94 94 64
Width: 600
Flags: W
LayerCount: 2
Fore
SplineSet
74 340 m 1,0,-1
 250 730 l 1,1,-1
 352 730 l 1,2,-1
 526 340 l 1,3,-1
 427 340 l 1,4,-1
 325 584 l 2,5,6
 317 604 317 604 311 623 c 128,-1,7
 305 642 305 642 302 652 c 1,8,9
 299 642 299 642 292.5 623 c 128,-1,10
 286 604 286 604 278 584 c 2,11,-1
 173 340 l 1,12,-1
 74 340 l 1,0,-1
EndSplineSet
EndChar

StartChar: underscore
Encoding: 95 95 65
Width: 600
Flags: W
LayerCount: 2
Fore
SplineSet
60 -119 m 1,0,-1
 60 -25 l 1,1,-1
 540 -25 l 1,2,-1
 540 -119 l 1,3,-1
 60 -119 l 1,0,-1
EndSplineSet
EndChar

StartChar: a
Encoding: 97 97 67
Width: 600
Flags: W
LayerCount: 2
Fore
SplineSet
245 -10 m 0,0,1
 159 -10 159 -10 109.5 34.5 c 128,-1,2
 60 79 60 79 60 156 c 0,3,4
 60 234 60 234 112.5 278.5 c 128,-1,5
 165 323 165 323 257 323 c 2,6,-1
 410 323 l 1,7,-1
 410 374 l 2,8,9
 410 419 410 419 381.5 444 c 128,-1,10
 353 469 353 469 303 469 c 0,11,12
 258 469 258 469 228 449.5 c 128,-1,13
 198 430 198 430 193 398 c 1,14,-1
 87 398 l 1,15,16
 96 472 96 472 155.5 516 c 128,-1,17
 215 560 215 560 306 560 c 0,18,19
 404 560 404 560 461 510 c 128,-1,20
 518 460 518 460 518 376 c 2,21,-1
 518 0 l 1,22,-1
 413 0 l 1,23,-1
 413 101 l 1,24,-1
 411 101 l 1,25,26
 403 49 403 49 358.5 19.5 c 128,-1,27
 314 -10 314 -10 245 -10 c 0,0,1
277 73 m 0,28,29
 335 73 335 73 372.5 102 c 128,-1,30
 410 131 410 131 410 178 c 2,31,-1
 410 250 l 1,32,-1
 259 250 l 2,33,34
 217 250 217 250 192.5 227 c 128,-1,35
 168 204 168 204 168 164 c 0,36,37
 168 121 168 121 197 97 c 128,-1,38
 226 73 226 73 277 73 c 0,28,29
EndSplineSet
EndChar

StartChar: b
Encoding: 98 98 68
Width: 600
Flags: W
LayerCount: 2
Fore
SplineSet
340 -10 m 0,0,1
 278 -10 278 -10 239 20.5 c 128,-1,2
 200 51 200 51 192 105 c 1,3,-1
 191 105 l 1,4,-1
 191 0 l 1,5,-1
 84 0 l 1,6,-1
 84 730 l 1,7,-1
 192 730 l 1,8,-1
 192 573 l 1,9,-1
 189 445 l 1,10,-1
 192 445 l 1,11,12
 200 499 200 499 239.5 529.5 c 128,-1,13
 279 560 279 560 340 560 c 0,14,15
 423 560 423 560 473 504 c 128,-1,16
 523 448 523 448 523 352 c 2,17,-1
 523 197 l 2,18,19
 523 101 523 101 472.5 45.5 c 128,-1,20
 422 -10 422 -10 340 -10 c 0,0,1
302 84 m 0,21,22
 355 84 355 84 385 114.5 c 128,-1,23
 415 145 415 145 415 203 c 2,24,-1
 415 347 l 2,25,26
 415 404 415 404 385 435 c 128,-1,27
 355 466 355 466 302 466 c 0,28,29
 251 466 251 466 221.5 434.5 c 128,-1,30
 192 403 192 403 192 347 c 2,31,-1
 192 203 l 2,32,33
 192 146 192 146 221.5 115 c 128,-1,34
 251 84 251 84 302 84 c 0,21,22
EndSplineSet
EndChar

StartChar: c
Encoding: 99 99 69
Width: 600
Flags: W
LayerCount: 2
Fore
SplineSet
304 -10 m 0,0,1
 201 -10 201 -10 139.5 47 c 128,-1,2
 78 104 78 104 78 203 c 2,3,-1
 78 347 l 2,4,5
 78 446 78 446 139.5 503 c 128,-1,6
 201 560 201 560 304 560 c 0,7,8
 403 560 403 560 462.5 527.5 c 128,-1,9
 522 495 522 495 525 405 c 1,10,-1
 417 405 l 1,11,12
 414 452 414 452 384.5 458.5 c 128,-1,13
 355 465 355 465 304 465 c 0,14,15
 249 465 249 465 217.5 434.5 c 128,-1,16
 186 404 186 404 186 348 c 2,17,-1
 186 203 l 2,18,19
 186 146 186 146 217.5 115.5 c 128,-1,20
 249 85 249 85 304 85 c 0,21,22
 355 85 355 85 387 93 c 128,-1,23
 419 101 419 101 422 149 c 5,24,-1
 530 149 l 5,25,26
 527 59 527 59 465 24.5 c 128,-1,27
 403 -10 403 -10 304 -10 c 0,0,1
EndSplineSet
EndChar

StartChar: d
Encoding: 100 100 70
Width: 600
Flags: W
LayerCount: 2
Fore
SplineSet
261 -10 m 0,0,1
 178 -10 178 -10 128 45.5 c 128,-1,2
 78 101 78 101 78 197 c 2,3,-1
 78 352 l 2,4,5
 78 448 78 448 127.5 504 c 128,-1,6
 177 560 177 560 261 560 c 0,7,8
 321 560 321 560 360.5 529.5 c 128,-1,9
 400 499 400 499 408 445 c 1,10,-1
 411 445 l 1,11,-1
 408 573 l 1,12,-1
 408 730 l 1,13,-1
 516 730 l 1,14,-1
 516 0 l 1,15,-1
 409 0 l 1,16,-1
 409 105 l 1,17,-1
 408 105 l 1,18,19
 400 51 400 51 361 20.5 c 128,-1,20
 322 -10 322 -10 261 -10 c 0,0,1
298 84 m 0,21,22
 349 84 349 84 378.5 115 c 128,-1,23
 408 146 408 146 408 203 c 2,24,-1
 408 347 l 2,25,26
 408 403 408 403 378.5 434.5 c 128,-1,27
 349 466 349 466 298 466 c 0,28,29
 245 466 245 466 215.5 435 c 128,-1,30
 186 404 186 404 186 347 c 2,31,-1
 186 203 l 2,32,33
 186 145 186 145 215.5 114.5 c 128,-1,34
 245 84 245 84 298 84 c 0,21,22
EndSplineSet
EndChar

StartChar: e
Encoding: 101 101 71
Width: 600
Flags: W
LayerCount: 2
Fore
SplineSet
300 -10 m 0,0,1
 233 -10 233 -10 183 16.5 c 128,-1,2
 133 43 133 43 105.5 91 c 128,-1,3
 78 139 78 139 78 203 c 2,4,-1
 78 347 l 2,5,6
 78 411 78 411 105.5 459 c 128,-1,7
 133 507 133 507 183 533.5 c 128,-1,8
 233 560 233 560 300 560 c 0,9,10
 368 560 368 560 418 533.5 c 128,-1,11
 468 507 468 507 495.5 459 c 128,-1,12
 523 411 523 411 523 347 c 2,13,-1
 523 249 l 1,14,-1
 182 249 l 1,15,-1
 182 203 l 2,16,17
 182 78 182 78 301 78 c 0,18,19
 398 78 398 78 413 143 c 1,20,-1
 520 143 l 1,21,22
 508 73 508 73 448 31.5 c 128,-1,23
 388 -10 388 -10 300 -10 c 0,0,1
182 347 m 2,24,-1
 182 322 l 1,25,-1
 418 323 l 1,26,-1
 418 348 l 2,27,28
 418 409 418 409 388 441.5 c 128,-1,29
 358 474 358 474 300 474 c 256,30,31
 242 474 242 474 212 441 c 128,-1,32
 182 408 182 408 182 347 c 2,24,-1
EndSplineSet
EndChar

StartChar: f
Encoding: 102 102 72
Width: 600
Flags: W
LayerCount: 2
Fore
SplineSet
213 0 m 1,0,-1
 213 394 l 1,1,-1
 57 394 l 1,2,-1
 57 492 l 1,3,-1
 213 492 l 1,4,-1
 213 581 l 2,5,6
 213 650 213 650 257 690 c 128,-1,7
 301 730 301 730 377 730 c 2,8,-1
 538 730 l 1,9,-1
 538 634 l 1,10,-1
 379 634 l 2,11,12
 321 634 321 634 321 580 c 2,13,-1
 321 492 l 1,14,-1
 538 492 l 1,15,-1
 538 394 l 1,16,-1
 321 394 l 1,17,-1
 321 0 l 1,18,-1
 213 0 l 1,0,-1
EndSplineSet
EndChar

StartChar: g
Encoding: 103 103 73
Width: 600
Flags: W
LayerCount: 2
Fore
SplineSet
156 -180 m 1,0,-1
 156 -87 l 1,1,-1
 325 -87 l 2,2,3
 408 -87 408 -87 408 -8 c 2,4,-1
 408 47 l 1,5,-1
 410 149 l 1,6,-1
 408 149 l 1,7,8
 401 95 401 95 362.5 64.5 c 128,-1,9
 324 34 324 34 263 34 c 0,10,11
 178 34 178 34 129 90 c 128,-1,12
 80 146 80 146 80 242 c 2,13,-1
 80 353 l 2,14,15
 80 448 80 448 129 504 c 128,-1,16
 178 560 178 560 263 560 c 0,17,18
 324 560 324 560 362.5 529.5 c 128,-1,19
 401 499 401 499 408 445 c 1,20,-1
 409 445 l 1,21,-1
 408 550 l 1,22,-1
 515 550 l 1,23,-1
 515 -10 l 2,24,25
 515 -89 515 -89 464.5 -134.5 c 128,-1,26
 414 -180 414 -180 326 -180 c 2,27,-1
 156 -180 l 1,0,-1
298 127 m 0,28,29
 349 127 349 127 378.5 158.5 c 128,-1,30
 408 190 408 190 408 247 c 2,31,-1
 408 347 l 2,32,33
 408 403 408 403 378.5 434.5 c 128,-1,34
 349 466 349 466 298 466 c 0,35,36
 245 466 245 466 216.5 435 c 128,-1,37
 188 404 188 404 188 347 c 2,38,-1
 188 247 l 2,39,40
 188 189 188 189 216.5 158 c 128,-1,41
 245 127 245 127 298 127 c 0,28,29
EndSplineSet
EndChar

StartChar: h
Encoding: 104 104 74
Width: 600
Flags: W
LayerCount: 2
Fore
SplineSet
84 0 m 1,0,-1
 84 730 l 1,1,-1
 192 730 l 1,2,-1
 192 550 l 1,3,-1
 191 445 l 1,4,-1
 192 445 l 1,5,6
 200 500 200 500 238 530 c 128,-1,7
 276 560 276 560 338 560 c 0,8,9
 420 560 420 560 469 507.5 c 128,-1,10
 518 455 518 455 518 366 c 2,11,-1
 518 0 l 1,12,-1
 410 0 l 1,13,-1
 410 354 l 2,14,15
 410 408 410 408 381 438 c 128,-1,16
 352 468 352 468 302 468 c 0,17,18
 251 468 251 468 221.5 436 c 128,-1,19
 192 404 192 404 192 347 c 2,20,-1
 192 0 l 1,21,-1
 84 0 l 1,0,-1
EndSplineSet
EndChar

StartChar: k
Encoding: 107 107 77
Width: 600
Flags: W
LayerCount: 2
Fore
SplineSet
87 0 m 1,0,-1
 87 730 l 1,1,-1
 195 730 l 1,2,-1
 195 329 l 1,3,-1
 292 329 l 1,4,-1
 438 550 l 1,5,-1
 560 550 l 1,6,-1
 385 286 l 1,7,-1
 563 0 l 1,8,-1
 439 0 l 1,9,-1
 292 236 l 1,10,-1
 195 236 l 1,11,-1
 195 0 l 1,12,-1
 87 0 l 1,0,-1
EndSplineSet
EndChar

StartChar: l
Encoding: 108 108 78
Width: 600
Flags: W
LayerCount: 2
Fore
SplineSet
385 0 m 2,0,1
 307 0 307 0 260.5 45.5 c 128,-1,2
 214 91 214 91 214 167 c 2,3,-1
 214 632 l 1,4,-1
 29 632 l 1,5,-1
 29 730 l 1,6,-1
 322 730 l 1,7,-1
 322 167 l 2,8,9
 322 135 322 135 340 116.5 c 128,-1,10
 358 98 358 98 389 98 c 2,11,-1
 555 98 l 1,12,-1
 555 0 l 1,13,-1
 385 0 l 2,0,1
EndSplineSet
EndChar

StartChar: m
Encoding: 109 109 79
Width: 600
Flags: W
LayerCount: 2
Fore
SplineSet
59 0 m 1,0,-1
 59 550 l 1,1,-1
 150 550 l 1,2,-1
 150 480 l 1,3,-1
 155 480 l 1,4,5
 161 517 161 517 184.5 538.5 c 128,-1,6
 208 560 208 560 245 560 c 0,7,8
 279 560 279 560 302.5 539 c 128,-1,9
 326 518 326 518 335 480 c 1,10,-1
 339 480 l 1,11,12
 345 517 345 517 370 538.5 c 128,-1,13
 395 560 395 560 432 560 c 0,14,15
 482 560 482 560 512 521 c 128,-1,16
 542 482 542 482 542 419 c 2,17,-1
 542 0 l 1,18,-1
 445 0 l 1,19,-1
 445 414 l 2,20,21
 445 445 445 445 431.5 462 c 128,-1,22
 418 479 418 479 393 479 c 0,23,24
 369 479 369 479 355 462.5 c 128,-1,25
 341 446 341 446 341 415 c 2,26,-1
 341 0 l 1,27,-1
 260 0 l 1,28,-1
 260 414 l 2,29,30
 260 479 260 479 207 479 c 0,31,32
 156 479 156 479 156 415 c 2,33,-1
 156 0 l 1,34,-1
 59 0 l 1,0,-1
EndSplineSet
EndChar

StartChar: n
Encoding: 110 110 80
Width: 600
Flags: W
LayerCount: 2
Fore
SplineSet
84 0 m 1,0,-1
 84 550 l 1,1,-1
 191 550 l 1,2,-1
 191 445 l 1,3,-1
 192 445 l 1,4,5
 200 499 200 499 238 529.5 c 128,-1,6
 276 560 276 560 338 560 c 0,7,8
 420 560 420 560 469 507.5 c 128,-1,9
 518 455 518 455 518 366 c 2,10,-1
 518 0 l 1,11,-1
 410 0 l 1,12,-1
 410 354 l 2,13,14
 410 408 410 408 381 437 c 128,-1,15
 352 466 352 466 302 466 c 0,16,17
 251 466 251 466 221.5 435 c 128,-1,18
 192 404 192 404 192 347 c 2,19,-1
 192 0 l 1,20,-1
 84 0 l 1,0,-1
EndSplineSet
EndChar

StartChar: o
Encoding: 111 111 81
Width: 600
Flags: W
LayerCount: 2
Fore
SplineSet
300 -9 m 256,0,1
 198 -9 198 -9 138 48.5 c 128,-1,2
 78 106 78 106 78 204 c 2,3,-1
 78 346 l 2,4,5
 78 444 78 444 138 501.5 c 128,-1,6
 198 559 198 559 300 559 c 256,7,8
 402 559 402 559 462.5 501.5 c 128,-1,9
 523 444 523 444 523 346 c 2,10,-1
 523 204 l 2,11,12
 523 106 523 106 462.5 48.5 c 128,-1,13
 402 -9 402 -9 300 -9 c 256,0,1
300 86 m 256,14,15
 354 86 354 86 384.5 116.5 c 128,-1,16
 415 147 415 147 415 204 c 2,17,-1
 415 346 l 2,18,19
 415 403 415 403 384.5 433.5 c 128,-1,20
 354 464 354 464 300 464 c 256,21,22
 246 464 246 464 216 433.5 c 128,-1,23
 186 403 186 403 186 346 c 2,24,-1
 186 204 l 2,25,26
 186 147 186 147 216 116.5 c 128,-1,27
 246 86 246 86 300 86 c 256,14,15
EndSplineSet
EndChar

StartChar: p
Encoding: 112 112 82
Width: 600
Flags: W
LayerCount: 2
Fore
SplineSet
84 -180 m 1,0,-1
 84 550 l 1,1,-1
 191 550 l 1,2,-1
 191 445 l 1,3,-1
 192 445 l 1,4,5
 200 499 200 499 239.5 529.5 c 128,-1,6
 279 560 279 560 340 560 c 0,7,8
 423 560 423 560 473 504 c 128,-1,9
 523 448 523 448 523 353 c 2,10,-1
 523 198 l 2,11,12
 523 102 523 102 473 46 c 128,-1,13
 423 -10 423 -10 340 -10 c 0,14,15
 279 -10 279 -10 239.5 20.5 c 128,-1,16
 200 51 200 51 193 105 c 1,17,-1
 189 105 l 1,18,-1
 192 -23 l 1,19,-1
 192 -180 l 1,20,-1
 84 -180 l 1,0,-1
303 84 m 0,21,22
 356 84 356 84 385.5 114.5 c 128,-1,23
 415 145 415 145 415 203 c 2,24,-1
 415 347 l 2,25,26
 415 405 415 405 385.5 435.5 c 128,-1,27
 356 466 356 466 303 466 c 0,28,29
 252 466 252 466 222 434.5 c 128,-1,30
 192 403 192 403 192 347 c 2,31,-1
 192 203 l 2,32,33
 192 147 192 147 222 115.5 c 128,-1,34
 252 84 252 84 303 84 c 0,21,22
EndSplineSet
EndChar

StartChar: q
Encoding: 113 113 83
Width: 600
Flags: W
LayerCount: 2
Fore
SplineSet
408 -180 m 1,0,-1
 408 -23 l 1,1,-1
 411 105 l 1,2,-1
 407 105 l 1,3,4
 399 51 399 51 360 20.5 c 128,-1,5
 321 -10 321 -10 261 -10 c 0,6,7
 177 -10 177 -10 128.5 46 c 128,-1,8
 80 102 80 102 80 198 c 2,9,-1
 80 353 l 2,10,11
 80 448 80 448 129 504 c 128,-1,12
 178 560 178 560 261 560 c 0,13,14
 322 560 322 560 360.5 529.5 c 128,-1,15
 399 499 399 499 407 445 c 1,16,-1
 409 445 l 1,17,-1
 409 550 l 1,18,-1
 516 550 l 1,19,-1
 516 -180 l 1,20,-1
 408 -180 l 1,0,-1
298 84 m 0,21,22
 349 84 349 84 378.5 115.5 c 128,-1,23
 408 147 408 147 408 203 c 2,24,-1
 408 347 l 2,25,26
 408 403 408 403 378.5 434.5 c 128,-1,27
 349 466 349 466 298 466 c 0,28,29
 245 466 245 466 216.5 435.5 c 128,-1,30
 188 405 188 405 188 347 c 2,31,-1
 188 203 l 2,32,33
 188 145 188 145 216.5 114.5 c 128,-1,34
 245 84 245 84 298 84 c 0,21,22
EndSplineSet
EndChar

StartChar: r
Encoding: 114 114 84
Width: 600
Flags: W
LayerCount: 2
Fore
SplineSet
102 0 m 1,0,-1
 102 550 l 1,1,-1
 206 550 l 1,2,-1
 206 448 l 1,3,4
 232 560 232 560 354 560 c 0,5,6
 442 560 442 560 493.5 505.5 c 128,-1,7
 545 451 545 451 545 356 c 2,8,-1
 545 319 l 1,9,-1
 434 319 l 1,10,-1
 434 347 l 2,11,12
 434 406 434 406 404.5 437.5 c 128,-1,13
 375 469 375 469 322 469 c 256,14,15
 269 469 269 469 239.5 437 c 128,-1,16
 210 405 210 405 210 347 c 2,17,-1
 210 0 l 1,18,-1
 102 0 l 1,0,-1
EndSplineSet
EndChar

StartChar: s
Encoding: 115 115 85
Width: 600
Flags: W
LayerCount: 2
Fore
SplineSet
281 -9 m 2,0,1
 191 -9 191 -9 137 32 c 128,-1,2
 83 73 83 73 78 143 c 1,3,-1
 186 143 l 1,4,5
 190 115 190 115 215 99 c 128,-1,6
 240 83 240 83 281 83 c 2,7,-1
 324 83 l 2,8,9
 373 83 373 83 398 102.5 c 128,-1,10
 423 122 423 122 423 155 c 0,11,12
 423 216 423 216 334 230 c 2,13,-1
 263 241 l 2,14,15
 175 254 175 254 133.5 291 c 128,-1,16
 92 328 92 328 92 400 c 0,17,18
 92 475 92 475 141.5 517 c 128,-1,19
 191 559 191 559 288 559 c 2,20,-1
 326 559 l 2,21,22
 412 559 412 559 463.5 519.5 c 128,-1,23
 515 480 515 480 522 414 c 1,24,-1
 414 414 l 1,25,26
 410 439 410 439 387 453.5 c 128,-1,27
 364 468 364 468 326 468 c 2,28,-1
 288 468 l 2,29,30
 241 468 241 468 219.5 450.5 c 128,-1,31
 198 433 198 433 198 399 c 0,32,33
 198 369 198 369 216.5 354 c 128,-1,34
 235 339 235 339 276 333 c 2,35,-1
 349 322 l 2,36,37
 442 307 442 307 485.5 269 c 128,-1,38
 529 231 529 231 529 158 c 0,39,40
 529 79 529 79 477.5 35 c 128,-1,41
 426 -9 426 -9 324 -9 c 2,42,-1
 281 -9 l 2,0,1
EndSplineSet
EndChar

StartChar: t
Encoding: 116 116 86
Width: 600
Flags: W
LayerCount: 2
Fore
SplineSet
360 0 m 2,0,1
 285 0 285 0 243 41 c 128,-1,2
 201 82 201 82 201 156 c 2,3,-1
 201 452 l 1,4,-1
 49 452 l 1,5,-1
 49 550 l 1,6,-1
 201 550 l 1,7,-1
 201 705 l 1,8,-1
 309 705 l 1,9,-1
 309 550 l 1,10,-1
 525 550 l 1,11,-1
 525 452 l 1,12,-1
 309 452 l 1,13,-1
 309 156 l 2,14,15
 309 98 309 98 365 98 c 2,16,-1
 515 98 l 1,17,-1
 515 0 l 1,18,-1
 360 0 l 2,0,1
EndSplineSet
EndChar

StartChar: u
Encoding: 117 117 87
Width: 600
Flags: W
LayerCount: 2
Fore
SplineSet
299 -10 m 256,0,1
 199 -10 199 -10 140.5 47.5 c 128,-1,2
 82 105 82 105 82 204 c 2,3,-1
 82 550 l 1,4,-1
 190 550 l 1,5,-1
 190 205 l 2,6,7
 190 147 190 147 219 115.5 c 128,-1,8
 248 84 248 84 299 84 c 0,9,10
 351 84 351 84 380.5 115.5 c 128,-1,11
 410 147 410 147 410 205 c 2,12,-1
 410 550 l 1,13,-1
 518 550 l 1,14,-1
 518 204 l 2,15,16
 518 105 518 105 458.5 47.5 c 128,-1,17
 399 -10 399 -10 299 -10 c 256,0,1
EndSplineSet
EndChar

StartChar: v
Encoding: 118 118 88
Width: 600
Flags: W
LayerCount: 2
Fore
SplineSet
229 0 m 1,0,-1
 47 550 l 1,1,-1
 158 550 l 1,2,-1
 271 198 l 2,3,4
 280 167 280 167 289 135.5 c 128,-1,5
 298 104 298 104 302 86 c 1,6,7
 307 104 307 104 315.5 135.5 c 128,-1,8
 324 167 324 167 333 198 c 2,9,-1
 444 550 l 1,10,-1
 553 550 l 1,11,-1
 371 0 l 1,12,-1
 229 0 l 1,0,-1
EndSplineSet
EndChar

StartChar: w
Encoding: 119 119 89
Width: 600
Flags: W
LayerCount: 2
Fore
SplineSet
113 0 m 1,0,-1
 28 550 l 1,1,-1
 120 550 l 1,2,-1
 170 187 l 2,3,4
 173 162 173 162 176.5 131 c 128,-1,5
 180 100 180 100 183 81 c 1,6,7
 185 100 185 100 189.5 131 c 128,-1,8
 194 162 194 162 198 187 c 2,9,-1
 255 550 l 1,10,-1
 346 550 l 1,11,-1
 402 187 l 2,12,13
 406 162 406 162 410.5 131 c 128,-1,14
 415 100 415 100 417 81 c 1,15,16
 420 100 420 100 424 131 c 128,-1,17
 428 162 428 162 432 187 c 2,18,-1
 484 550 l 1,19,-1
 573 550 l 1,20,-1
 484 0 l 1,21,-1
 370 0 l 1,22,-1
 316 359 l 2,23,24
 312 387 312 387 307 418.5 c 128,-1,25
 302 450 302 450 300 469 c 1,26,27
 297 450 297 450 292.5 418.5 c 128,-1,28
 288 387 288 387 284 359 c 2,29,-1
 228 0 l 1,30,-1
 113 0 l 1,0,-1
EndSplineSet
EndChar

StartChar: x
Encoding: 120 120 90
Width: 600
Flags: W
LayerCount: 2
Fore
SplineSet
43 0 m 1,0,-1
 236 284 l 1,1,-1
 55 550 l 1,2,-1
 179 550 l 1,3,-1
 276 398 l 2,4,5
 283 386 283 386 290 372.5 c 128,-1,6
 297 359 297 359 301 350 c 1,7,8
 304 359 304 359 310.5 372.5 c 128,-1,9
 317 386 317 386 325 398 c 2,10,-1
 422 550 l 1,11,-1
 546 550 l 1,12,-1
 365 283 l 1,13,-1
 557 0 l 1,14,-1
 433 0 l 1,15,-1
 326 165 l 2,16,17
 319 177 319 177 312 192 c 128,-1,18
 305 207 305 207 301 216 c 1,19,20
 296 207 296 207 289 192 c 128,-1,21
 282 177 282 177 274 165 c 2,22,-1
 166 0 l 1,23,-1
 43 0 l 1,0,-1
EndSplineSet
EndChar

StartChar: y
Encoding: 121 121 91
Width: 600
Flags: W
LayerCount: 2
Fore
SplineSet
172 -180 m 1,0,-1
 251 32 l 1,1,-1
 46 550 l 1,2,-1
 165 550 l 1,3,-1
 280 240 l 2,4,5
 287 220 287 220 294.5 192 c 128,-1,6
 302 164 302 164 306 146 c 1,7,8
 310 164 310 164 317 192 c 128,-1,9
 324 220 324 220 331 240 c 2,10,-1
 439 550 l 1,11,-1
 554 550 l 1,12,-1
 286 -180 l 1,13,-1
 172 -180 l 1,0,-1
EndSplineSet
EndChar

StartChar: z
Encoding: 122 122 92
Width: 600
Flags: W
LayerCount: 2
Fore
SplineSet
84 0 m 1,0,-1
 84 102 l 1,1,-1
 381 454 l 1,2,-1
 93 454 l 1,3,-1
 93 550 l 1,4,-1
 505 550 l 1,5,-1
 505 448 l 1,6,-1
 204 96 l 1,7,-1
 516 96 l 1,8,-1
 516 0 l 1,9,-1
 84 0 l 1,0,-1
EndSplineSet
EndChar

StartChar: braceleft
Encoding: 123 123 93
Width: 600
Flags: W
LayerCount: 2
Fore
SplineSet
461 -110 m 2,0,1
 375 -110 375 -110 324 -64.5 c 128,-1,2
 273 -19 273 -19 278 61 c 2,3,-1
 288 220 l 2,4,5
 290 266 290 266 270.5 288.5 c 128,-1,6
 251 311 251 311 197 311 c 2,7,-1
 82 311 l 1,8,-1
 82 409 l 1,9,-1
 197 409 l 2,10,11
 252 409 252 409 271 431 c 128,-1,12
 290 453 290 453 288 500 c 2,13,-1
 278 660 l 2,14,15
 273 740 273 740 323.5 785 c 128,-1,16
 374 830 374 830 461 830 c 2,17,-1
 518 830 l 1,18,-1
 518 732 l 1,19,-1
 470 732 l 2,20,21
 428 732 428 732 405.5 712.5 c 128,-1,22
 383 693 383 693 386 654 c 2,23,-1
 396 494 l 2,24,25
 399 440 399 440 371 404.5 c 128,-1,26
 343 369 343 369 291 360 c 1,27,28
 342 351 342 351 370.5 315 c 128,-1,29
 399 279 399 279 396 226 c 2,30,-1
 386 66 l 2,31,32
 383 28 383 28 406 8 c 128,-1,33
 429 -12 429 -12 470 -12 c 2,34,-1
 518 -12 l 1,35,-1
 518 -110 l 1,36,-1
 461 -110 l 2,0,1
EndSplineSet
EndChar

StartChar: bar
Encoding: 124 124 94
Width: 600
Flags: W
LayerCount: 2
Fore
SplineSet
246 -110 m 1,0,-1
 246 830 l 1,1,-1
 354 830 l 1,2,-1
 354 -110 l 1,3,-1
 246 -110 l 1,0,-1
EndSplineSet
EndChar

StartChar: braceright
Encoding: 125 125 95
Width: 600
Flags: W
LayerCount: 2
Fore
SplineSet
82 -110 m 1,0,-1
 82 -12 l 1,1,-1
 130 -12 l 2,2,3
 171 -12 171 -12 194 8 c 128,-1,4
 217 28 217 28 215 66 c 2,5,-1
 205 226 l 2,6,7
 201 279 201 279 229.5 315 c 128,-1,8
 258 351 258 351 309 360 c 1,9,10
 257 369 257 369 229 404.5 c 128,-1,11
 201 440 201 440 205 494 c 2,12,-1
 215 654 l 2,13,14
 217 693 217 693 194.5 712.5 c 128,-1,15
 172 732 172 732 130 732 c 2,16,-1
 82 732 l 1,17,-1
 82 830 l 1,18,-1
 139 830 l 2,19,20
 226 830 226 830 276.5 785 c 128,-1,21
 327 740 327 740 323 660 c 2,22,-1
 313 500 l 2,23,24
 310 453 310 453 329 431 c 128,-1,25
 348 409 348 409 404 409 c 2,26,-1
 518 409 l 1,27,-1
 518 311 l 1,28,-1
 404 311 l 2,29,30
 349 311 349 311 329.5 288.5 c 128,-1,31
 310 266 310 266 313 220 c 2,32,-1
 323 61 l 2,33,34
 327 -19 327 -19 276 -64.5 c 128,-1,35
 225 -110 225 -110 139 -110 c 2,36,-1
 82 -110 l 1,0,-1
EndSplineSet
EndChar

StartChar: asciitilde
Encoding: 126 126 96
Width: 600
Flags: W
LayerCount: 2
Fore
SplineSet
58 255 m 1,0,-1
 58 330 l 2,1,2
 58 390 58 390 95.5 426.5 c 128,-1,3
 133 463 133 463 195 463 c 0,4,5
 234 463 234 463 260.5 449.5 c 128,-1,6
 287 436 287 436 305.5 416 c 128,-1,7
 324 396 324 396 339 376 c 128,-1,8
 354 356 354 356 369 343 c 128,-1,9
 384 330 384 330 405 330 c 0,10,11
 447 330 447 330 447 379 c 2,12,-1
 447 450 l 1,13,-1
 543 450 l 1,14,-1
 543 376 l 2,15,16
 543 316 543 316 505 279.5 c 128,-1,17
 467 243 467 243 405 243 c 0,18,19
 366 243 366 243 339.5 256 c 128,-1,20
 313 269 313 269 294.5 289 c 128,-1,21
 276 309 276 309 261 329 c 128,-1,22
 246 349 246 349 231 362.5 c 128,-1,23
 216 376 216 376 196 376 c 0,24,25
 153 376 153 376 153 327 c 2,26,-1
 153 255 l 1,27,-1
 58 255 l 1,0,-1
EndSplineSet
EndChar

StartChar: quotedblleft
Encoding: 8220 8220 99
Width: 600
Flags: W
LayerCount: 2
Fore
SplineSet
298 465 m 1,0,-1
 218 776 l 1,1,-1
 73 776 l 1,2,-1
 203 465 l 1,3,-1
 298 465 l 1,0,-1
537 465 m 1,4,-1
 457 776 l 1,5,-1
 312 776 l 1,6,-1
 442 465 l 1,7,-1
 537 465 l 1,4,-1
EndSplineSet
EndChar

StartChar: quotedblright
Encoding: 8221 8221 100
Width: 600
Flags: W
LayerCount: 2
Fore
SplineSet
312 465 m 1,0,-1
 392 776 l 1,1,-1
 537 776 l 1,2,-1
 407 465 l 1,3,-1
 312 465 l 1,0,-1
73 465 m 1,4,-1
 153 776 l 1,5,-1
 298 776 l 1,6,-1
 168 465 l 1,7,-1
 73 465 l 1,4,-1
EndSplineSet
EndChar

StartChar: bullet
Encoding: 8226 8226 101
Width: 600
Flags: W
LayerCount: 2
Fore
SplineSet
300 241 m 256,0,1
 245 241 245 241 210.5 275.5 c 128,-1,2
 176 310 176 310 176 365 c 256,3,4
 176 420 176 420 210.5 455 c 128,-1,5
 245 490 245 490 300 490 c 256,6,7
 355 490 355 490 390 455 c 128,-1,8
 425 420 425 420 425 365 c 256,9,10
 425 310 425 310 390 275.5 c 128,-1,11
 355 241 355 241 300 241 c 256,0,1
EndSplineSet
EndChar

StartChar: emdash
Encoding: 8212 8212 102
Width: 600
Flags: W
LayerCount: 2
Fore
SplineSet
0 281 m 1,0,-1
 0 379 l 1,1,-1
 600 379 l 1,2,-1
 600 281 l 1,3,-1
 0 281 l 1,0,-1
EndSplineSet
EndChar

StartChar: exclamdown
Encoding: 161 161 104
Width: 600
Flags: W
LayerCount: 2
Fore
SplineSet
289 430 m 2,0,1
 258 430 258 430 239.5 447.5 c 128,-1,2
 221 465 221 465 221 494 c 0,3,4
 221 522 221 522 239.5 539 c 128,-1,5
 258 556 258 556 289 556 c 2,6,-1
 312 556 l 2,7,8
 342 556 342 556 361 539 c 128,-1,9
 380 522 380 522 380 494 c 0,10,11
 380 465 380 465 361 447.5 c 128,-1,12
 342 430 342 430 312 430 c 2,13,-1
 289 430 l 2,0,1
239 -180 m 1,14,-1
 239 -44 l 1,15,-1
 261 327 l 1,16,-1
 339 327 l 1,17,-1
 361 -44 l 1,18,-1
 361 -180 l 1,19,-1
 239 -180 l 1,14,-1
EndSplineSet
EndChar

StartChar: copyright
Encoding: 169 169 105
Width: 600
Flags: W
LayerCount: 2
Fore
SplineSet
300 110 m 0,0,1
 224 110 224 110 166.5 140 c 128,-1,2
 109 170 109 170 77 224 c 128,-1,3
 45 278 45 278 45 350 c 2,4,-1
 45 500 l 2,5,6
 45 572 45 572 77 626 c 128,-1,7
 109 680 109 680 166.5 710 c 128,-1,8
 224 740 224 740 300 740 c 0,9,10
 377 740 377 740 434 710 c 128,-1,11
 491 680 491 680 523 626 c 128,-1,12
 555 572 555 572 555 500 c 2,13,-1
 555 350 l 2,14,15
 555 278 555 278 523 224 c 128,-1,16
 491 170 491 170 434 140 c 128,-1,17
 377 110 377 110 300 110 c 0,0,1
300 160 m 256,18,19
 360 160 360 160 405 183.5 c 128,-1,20
 450 207 450 207 475 250 c 128,-1,21
 500 293 500 293 500 350 c 2,22,-1
 500 500 l 2,23,24
 500 557 500 557 475 599.5 c 128,-1,25
 450 642 450 642 405 666 c 128,-1,26
 360 690 360 690 300 690 c 256,27,28
 240 690 240 690 195 666 c 128,-1,29
 150 642 150 642 125 599.5 c 128,-1,30
 100 557 100 557 100 500 c 2,31,-1
 100 350 l 2,32,33
 100 293 100 293 125 250 c 128,-1,34
 150 207 150 207 195 183.5 c 128,-1,35
 240 160 240 160 300 160 c 256,18,19
305 245 m 0,36,37
 247 245 247 245 212 277.5 c 128,-1,38
 177 310 177 310 177 363 c 2,39,-1
 177 487 l 2,40,41
 177 540 177 540 212 572.5 c 128,-1,42
 247 605 247 605 305 605 c 0,43,44
 362 605 362 605 397 572.5 c 128,-1,45
 432 540 432 540 432 487 c 1,46,-1
 361 487 l 1,47,48
 361 513 361 513 345.5 528.5 c 128,-1,49
 330 544 330 544 305 544 c 0,50,51
 279 544 279 544 263.5 528.5 c 128,-1,52
 248 513 248 513 248 487 c 2,53,-1
 248 363 l 2,54,55
 248 337 248 337 263.5 321.5 c 128,-1,56
 279 306 279 306 305 306 c 0,57,58
 330 306 330 306 345.5 321.5 c 128,-1,59
 361 337 361 337 361 363 c 1,60,-1
 432 363 l 1,61,62
 432 310 432 310 397 277.5 c 128,-1,63
 362 245 362 245 305 245 c 0,36,37
EndSplineSet
EndChar

StartChar: questiondown
Encoding: 191 191 107
Width: 600
Flags: W
LayerCount: 2
Fore
SplineSet
337 429 m 2,0,1
 306 429 306 429 287.5 446.5 c 128,-1,2
 269 464 269 464 269 493 c 0,3,4
 269 521 269 521 287.5 538 c 128,-1,5
 306 555 306 555 337 555 c 2,6,-1
 360 555 l 2,7,8
 390 555 390 555 409 538.5 c 128,-1,9
 428 522 428 522 428 493 c 0,10,11
 428 465 428 465 409 447 c 128,-1,12
 390 429 390 429 360 429 c 2,13,-1
 337 429 l 2,0,1
337 -170 m 2,14,15
 229 -170 229 -170 165 -113 c 128,-1,16
 101 -56 101 -56 101 40 c 0,17,18
 101 98 101 98 125.5 143 c 128,-1,19
 150 188 150 188 194 213.5 c 128,-1,20
 238 239 238 239 296 242 c 1,21,-1
 296 339 l 1,22,-1
 397 339 l 1,23,-1
 398 149 l 1,24,-1
 333 149 l 2,25,26
 275 149 275 149 242 120 c 128,-1,27
 209 91 209 91 209 40 c 256,28,29
 209 -11 209 -11 242.5 -39.5 c 128,-1,30
 276 -68 276 -68 334 -68 c 2,31,-1
 471 -68 l 1,32,-1
 471 -170 l 1,33,-1
 337 -170 l 2,14,15
EndSplineSet
EndChar

StartChar: Oslash
Encoding: 216 216 113
Width: 600
Flags: W
LayerCount: 2
Fore
SplineSet
29 -40 m 1,0,-1
 105 93 l 1,1,2
 80 140 80 140 80 203 c 2,3,-1
 80 527 l 2,4,5
 80 625 80 625 139 682.5 c 128,-1,6
 198 740 198 740 300 740 c 0,7,8
 389 740 389 740 446 696 c 1,9,-1
 477 750 l 1,10,-1
 571 750 l 1,11,-1
 501 626 l 1,12,13
 520 583 520 583 520 528 c 2,14,-1
 520 203 l 2,15,16
 520 105 520 105 461 47.5 c 128,-1,17
 402 -10 402 -10 300 -10 c 0,18,19
 218 -10 218 -10 162 28 c 1,20,-1
 123 -40 l 1,21,-1
 29 -40 l 1,0,-1
186 527 m 2,22,-1
 186 237 l 1,23,-1
 393 603 l 1,24,25
 364 644 364 644 300 644 c 0,26,27
 245 644 245 644 215.5 614 c 128,-1,28
 186 584 186 584 186 527 c 2,22,-1
300 86 m 0,29,30
 355 86 355 86 384.5 116 c 128,-1,31
 414 146 414 146 414 203 c 2,32,-1
 414 473 l 1,33,-1
 213 119 l 1,34,35
 243 86 243 86 300 86 c 0,29,30
EndSplineSet
EndChar

StartChar: oslash
Encoding: 248 248 121
Width: 600
Flags: W
LayerCount: 2
Fore
SplineSet
32 -30 m 1,0,-1
 111 82 l 1,1,2
 80 133 80 133 80 203 c 2,3,-1
 80 347 l 2,4,5
 80 445 80 445 139 502.5 c 128,-1,6
 198 560 198 560 300 560 c 0,7,8
 374 560 374 560 427 529 c 1,9,-1
 470 590 l 1,10,-1
 568 590 l 1,11,-1
 486 474 l 1,12,13
 520 422 520 422 520 348 c 2,14,-1
 520 203 l 2,15,16
 520 105 520 105 461 47.5 c 128,-1,17
 402 -10 402 -10 300 -10 c 0,18,19
 222 -10 222 -10 168 24 c 1,20,-1
 130 -30 l 1,21,-1
 32 -30 l 1,0,-1
181 203 m 2,22,23
 181 192 181 192 182 183 c 1,24,-1
 369 448 l 1,25,26
 341 465 341 465 300 465 c 0,27,28
 244 465 244 465 212.5 434 c 128,-1,29
 181 403 181 403 181 347 c 2,30,-1
 181 203 l 2,22,23
300 85 m 0,31,32
 356 85 356 85 387.5 116 c 128,-1,33
 419 147 419 147 419 203 c 2,34,-1
 419 347 l 2,35,36
 419 362 419 362 416 376 c 1,37,-1
 225 106 l 1,38,39
 255 85 255 85 300 85 c 0,31,32
EndSplineSet
EndChar

StartChar: dotlessi
Encoding: 305 305 124
Width: 600
Flags: W
LayerCount: 2
Fore
SplineSet
81 0 m 1,0,-1
 81 98 l 1,1,-1
 274 98 l 1,2,-1
 274 452 l 1,3,-1
 106 452 l 1,4,-1
 106 550 l 1,5,-1
 379 550 l 1,6,-1
 379 98 l 1,7,-1
 557 98 l 1,8,-1
 557 0 l 1,9,-1
 81 0 l 1,0,-1
EndSplineSet
EndChar

StartChar: uni0237
Encoding: 567 567 125
Width: 600
Flags: W
LayerCount: 2
Fore
SplineSet
67 -180 m 1,0,-1
 67 -80 l 1,1,-1
 220 -80 l 2,2,3
 276 -80 276 -80 307 -50 c 128,-1,4
 338 -20 338 -20 338 35 c 2,5,-1
 338 451 l 1,6,-1
 87 451 l 1,7,-1
 87 550 l 1,8,-1
 446 550 l 1,9,-1
 446 34 l 2,10,11
 446 -65 446 -65 386 -122.5 c 128,-1,12
 326 -180 326 -180 224 -180 c 2,13,-1
 67 -180 l 1,0,-1
EndSplineSet
EndChar

StartChar: infinity
Encoding: 8734 8734 126
Width: 600
Flags: W
LayerCount: 2
Fore
SplineSet
163 160 m 0,0,1
 103 160 103 160 67 197.5 c 128,-1,2
 31 235 31 235 31 297 c 2,3,-1
 31 369 l 2,4,5
 31 429 31 429 69.5 467 c 128,-1,6
 108 505 108 505 172 505 c 0,7,8
 223 505 223 505 259.5 479.5 c 128,-1,9
 296 454 296 454 313 406 c 1,10,-1
 317 406 l 1,11,12
 321 428 321 428 335 450.5 c 128,-1,13
 349 473 349 473 374.5 489 c 128,-1,14
 400 505 400 505 437 505 c 0,15,16
 497 505 497 505 533.5 467.5 c 128,-1,17
 570 430 570 430 570 369 c 2,18,-1
 570 297 l 2,19,20
 570 236 570 236 531 198 c 128,-1,21
 492 160 492 160 428 160 c 0,22,23
 377 160 377 160 340.5 185.5 c 128,-1,24
 304 211 304 211 287 259 c 1,25,-1
 283 259 l 1,26,27
 279 238 279 238 265 215 c 128,-1,28
 251 192 251 192 225.5 176 c 128,-1,29
 200 160 200 160 163 160 c 0,0,1
175 228 m 0,30,31
 209 228 209 228 228.5 244.5 c 128,-1,32
 248 261 248 261 257 281 c 128,-1,33
 266 301 266 301 268 311 c 1,34,-1
 240 388 l 2,35,36
 219 438 219 438 175 438 c 0,37,38
 146 438 146 438 128 419 c 128,-1,39
 110 400 110 400 110 369 c 2,40,-1
 110 297 l 2,41,42
 110 265 110 265 128 246.5 c 128,-1,43
 146 228 146 228 175 228 c 0,30,31
425 228 m 0,44,45
 454 228 454 228 472.5 246.5 c 128,-1,46
 491 265 491 265 491 297 c 2,47,-1
 491 369 l 2,48,49
 491 400 491 400 472.5 419 c 128,-1,50
 454 438 454 438 425 438 c 0,51,52
 391 438 391 438 371.5 421 c 128,-1,53
 352 404 352 404 343 384 c 128,-1,54
 334 364 334 364 332 355 c 1,55,-1
 360 277 l 2,56,57
 381 228 381 228 425 228 c 0,44,45
EndSplineSet
EndChar

StartChar: arrowright
Encoding: 8594 8594 127
Width: 600
Flags: W
LayerCount: 2
Fore
SplineSet
233 35 m 1,0,-1
 395 240 l 2,1,2
 405 253 405 253 418 265.5 c 128,-1,3
 431 278 431 278 440 285 c 1,4,-1
 440 294 l 1,5,6
 427 293 427 293 407 291.5 c 128,-1,7
 387 290 387 290 370 290 c 2,8,-1
 40 290 l 1,9,-1
 40 370 l 1,10,-1
 370 370 l 2,11,12
 387 370 387 370 407 368.5 c 128,-1,13
 427 367 427 367 440 365 c 1,14,-1
 440 374 l 1,15,16
 433 380 433 380 420.5 393 c 128,-1,17
 408 406 408 406 395 421 c 2,18,-1
 233 625 l 1,19,-1
 338 625 l 1,20,-1
 570 330 l 1,21,-1
 339 35 l 1,22,-1
 233 35 l 1,0,-1
EndSplineSet
EndChar

StartChar: uni0308
Encoding: 776 776 128
Width: 600
Flags: W
LayerCount: 2
Fore
SplineSet
-186 645 m 0,0,1
 -217 645 -217 645 -235.5 663.5 c 128,-1,2
 -254 682 -254 682 -254 713 c 0,3,4
 -254 745 -254 745 -235.5 763.5 c 128,-1,5
 -217 782 -217 782 -186 782 c 0,6,7
 -154 782 -154 782 -135.5 763.5 c 128,-1,8
 -117 745 -117 745 -117 713 c 0,9,10
 -117 682 -117 682 -135.5 663.5 c 128,-1,11
 -154 645 -154 645 -186 645 c 0,0,1
-414 645 m 0,12,13
 -446 645 -446 645 -464.5 663.5 c 128,-1,14
 -483 682 -483 682 -483 713 c 0,15,16
 -483 745 -483 745 -464.5 763.5 c 128,-1,17
 -446 782 -446 782 -414 782 c 0,18,19
 -383 782 -383 782 -364 763.5 c 128,-1,20
 -345 745 -345 745 -345 713 c 0,21,22
 -345 682 -345 682 -364 663.5 c 128,-1,23
 -383 645 -383 645 -414 645 c 0,12,13
EndSplineSet
EndChar

StartChar: uni0307
Encoding: 775 775 129
Width: 600
Flags: W
LayerCount: 2
Fore
SplineSet
-300 645 m 256,0,1
 -335 645 -335 645 -356 663.5 c 128,-1,2
 -377 682 -377 682 -377 713 c 0,3,4
 -377 745 -377 745 -356 763.5 c 128,-1,5
 -335 782 -335 782 -300 782 c 256,6,7
 -265 782 -265 782 -244 763.5 c 128,-1,8
 -223 745 -223 745 -223 713 c 0,9,10
 -223 682 -223 682 -244 663.5 c 128,-1,11
 -265 645 -265 645 -300 645 c 256,0,1
EndSplineSet
EndChar

StartChar: gravecomb
Encoding: 768 768 130
Width: 600
Flags: W
LayerCount: 2
Fore
SplineSet
-332 645 m 1,0,-1
 -448 785 l 1,1,-1
 -328 785 l 1,2,-1
 -220 645 l 1,3,-1
 -332 645 l 1,0,-1
EndSplineSet
EndChar

StartChar: acutecomb
Encoding: 769 769 131
Width: 600
Flags: W
LayerCount: 2
Fore
SplineSet
-377 645 m 1,0,-1
 -271 785 l 1,1,-1
 -155 785 l 1,2,-1
 -268 645 l 1,3,-1
 -377 645 l 1,0,-1
EndSplineSet
EndChar

StartChar: tildecomb
Encoding: 771 771 132
Width: 600
Flags: W
LayerCount: 2
Fore
SplineSet
-230 646 m 0,0,1
 -261 646 -261 646 -280 656 c 128,-1,2
 -299 666 -299 666 -312 679 c 128,-1,3
 -325 692 -325 692 -337 702.5 c 128,-1,4
 -349 713 -349 713 -365 713 c 0,5,6
 -395 713 -395 713 -395 678 c 2,7,-1
 -395 651 l 1,8,-1
 -466 651 l 1,9,-1
 -466 682 l 2,10,11
 -466 729 -466 729 -439.5 757 c 128,-1,12
 -413 785 -413 785 -370 785 c 0,13,14
 -339 785 -339 785 -320 774.5 c 128,-1,15
 -301 764 -301 764 -288 751 c 128,-1,16
 -275 738 -275 738 -263 728 c 128,-1,17
 -251 718 -251 718 -235 718 c 0,18,19
 -205 718 -205 718 -205 750 c 2,20,-1
 -205 780 l 1,21,-1
 -134 780 l 1,22,-1
 -134 748 l 2,23,24
 -134 701 -134 701 -160.5 673.5 c 128,-1,25
 -187 646 -187 646 -230 646 c 0,0,1
EndSplineSet
EndChar

StartChar: glyph135
Encoding: 65539 -1 133
Width: 600
Flags: W
LayerCount: 2
Fore
SplineSet
-186 813 m 0,0,1
 -217 813 -217 813 -235.5 831 c 128,-1,2
 -254 849 -254 849 -254 880 c 0,3,4
 -254 912 -254 912 -235.5 930.5 c 128,-1,5
 -217 949 -217 949 -186 949 c 0,6,7
 -154 949 -154 949 -135.5 930.5 c 128,-1,8
 -117 912 -117 912 -117 880 c 0,9,10
 -117 849 -117 849 -135.5 831 c 128,-1,11
 -154 813 -154 813 -186 813 c 0,0,1
-414 813 m 0,12,13
 -446 813 -446 813 -464.5 831 c 128,-1,14
 -483 849 -483 849 -483 880 c 0,15,16
 -483 912 -483 912 -464.5 930.5 c 128,-1,17
 -446 949 -446 949 -414 949 c 0,18,19
 -383 949 -383 949 -364 930.5 c 128,-1,20
 -345 912 -345 912 -345 880 c 0,21,22
 -345 849 -345 849 -364 831 c 128,-1,23
 -383 813 -383 813 -414 813 c 0,12,13
EndSplineSet
EndChar

StartChar: glyph136
Encoding: 65540 -1 134
Width: 600
Flags: W
LayerCount: 2
Fore
SplineSet
-377 810 m 1,0,-1
 -271 950 l 1,1,-1
 -155 950 l 1,2,-1
 -268 810 l 1,3,-1
 -377 810 l 1,0,-1
EndSplineSet
EndChar

StartChar: glyph137
Encoding: 65541 -1 135
Width: 600
Flags: W
LayerCount: 2
Fore
SplineSet
-230 811 m 0,0,1
 -261 811 -261 811 -280 821 c 128,-1,2
 -299 831 -299 831 -312 844 c 128,-1,3
 -325 857 -325 857 -337 867.5 c 128,-1,4
 -349 878 -349 878 -365 878 c 0,5,6
 -395 878 -395 878 -395 843 c 2,7,-1
 -395 816 l 1,8,-1
 -466 816 l 1,9,-1
 -466 847 l 2,10,11
 -466 894 -466 894 -439.5 922 c 128,-1,12
 -413 950 -413 950 -370 950 c 0,13,14
 -339 950 -339 950 -320 939.5 c 128,-1,15
 -301 929 -301 929 -288 916 c 128,-1,16
 -275 903 -275 903 -263 893 c 128,-1,17
 -251 883 -251 883 -235 883 c 0,18,19
 -205 883 -205 883 -205 915 c 2,20,-1
 -205 945 l 1,21,-1
 -134 945 l 1,22,-1
 -134 913 l 2,23,24
 -134 866 -134 866 -160.5 838.5 c 128,-1,25
 -187 811 -187 811 -230 811 c 0,0,1
EndSplineSet
EndChar
